<?xml version="1.0" encoding="UTF-8" standalone="no"?>
<!DOCTYPE svg PUBLIC "-//W3C//DTD SVG 1.1//EN"
 "http://www.w3.org/Graphics/SVG/1.1/DTD/svg11.dtd">
<!-- Generated by graphviz version 2.40.1 (20161225.0304)
 -->
<!-- Title: Tree Pages: 1 -->
<svg width="1067pt" height="433pt"
 viewBox="0.00 0.00 1067.00 433.00" xmlns="http://www.w3.org/2000/svg" xmlns:xlink="http://www.w3.org/1999/xlink">
<g id="graph0" class="graph" transform="scale(1 1) rotate(0) translate(4 429)">
<title>Tree</title>
<polygon fill="#ffffff" stroke="transparent" points="-4,4 -4,-429 1063,-429 1063,4 -4,4"/>
<!-- 0 -->
<g id="node1" class="node">
<title>0</title>
<path fill="#ea995f" stroke="#000000" d="M639.5,-425C639.5,-425 490.5,-425 490.5,-425 484.5,-425 478.5,-419 478.5,-413 478.5,-413 478.5,-354 478.5,-354 478.5,-348 484.5,-342 490.5,-342 490.5,-342 639.5,-342 639.5,-342 645.5,-342 651.5,-348 651.5,-354 651.5,-354 651.5,-413 651.5,-413 651.5,-419 645.5,-425 639.5,-425"/>
<text text-anchor="start" x="486.5" y="-409.8" font-family="Helvetica,sans-Serif" font-size="14.00" fill="#000000">TotalWorkingYears ≤ 1.5</text>
<text text-anchor="start" x="514" y="-394.8" font-family="Helvetica,sans-Serif" font-size="14.00" fill="#000000">entropy = 0.633</text>
<text text-anchor="start" x="513" y="-379.8" font-family="Helvetica,sans-Serif" font-size="14.00" fill="#000000">samples = 1323</text>
<text text-anchor="start" x="503" y="-364.8" font-family="Helvetica,sans-Serif" font-size="14.00" fill="#000000">value = [1112, 211]</text>
<text text-anchor="start" x="536" y="-349.8" font-family="Helvetica,sans-Serif" font-size="14.00" fill="#000000">class = 1</text>
</g>
<!-- 1 -->
<g id="node2" class="node">
<title>1</title>
<path fill="#ffffff" stroke="#000000" d="M523.5,-306C523.5,-306 270.5,-306 270.5,-306 264.5,-306 258.5,-300 258.5,-294 258.5,-294 258.5,-235 258.5,-235 258.5,-229 264.5,-223 270.5,-223 270.5,-223 523.5,-223 523.5,-223 529.5,-223 535.5,-229 535.5,-235 535.5,-235 535.5,-294 535.5,-294 535.5,-300 529.5,-306 523.5,-306"/>
<text text-anchor="start" x="266.5" y="-290.8" font-family="Helvetica,sans-Serif" font-size="14.00" fill="#000000">BusinessTravel_Travel_Frequently ≤ 0.5</text>
<text text-anchor="start" x="354.5" y="-275.8" font-family="Helvetica,sans-Serif" font-size="14.00" fill="#000000">entropy = 1.0</text>
<text text-anchor="start" x="353" y="-260.8" font-family="Helvetica,sans-Serif" font-size="14.00" fill="#000000">samples = 86</text>
<text text-anchor="start" x="347" y="-245.8" font-family="Helvetica,sans-Serif" font-size="14.00" fill="#000000">value = [43, 43]</text>
<text text-anchor="start" x="368" y="-230.8" font-family="Helvetica,sans-Serif" font-size="14.00" fill="#000000">class = 1</text>
</g>
<!-- 0&#45;&gt;1 -->
<g id="edge1" class="edge">
<title>0&#45;&gt;1</title>
<path fill="none" stroke="#000000" d="M506.2418,-341.8796C492.6857,-332.2774 478.1628,-321.9903 464.2754,-312.1534"/>
<polygon fill="#000000" stroke="#000000" points="465.9084,-309.021 455.7251,-306.0969 461.8623,-314.7332 465.9084,-309.021"/>
<text text-anchor="middle" x="459.9325" y="-327.0403" font-family="Helvetica,sans-Serif" font-size="14.00" fill="#000000">True</text>
</g>
<!-- 8 -->
<g id="node9" class="node">
<title>8</title>
<path fill="#e99558" stroke="#000000" d="M733.5,-306C733.5,-306 590.5,-306 590.5,-306 584.5,-306 578.5,-300 578.5,-294 578.5,-294 578.5,-235 578.5,-235 578.5,-229 584.5,-223 590.5,-223 590.5,-223 733.5,-223 733.5,-223 739.5,-223 745.5,-229 745.5,-235 745.5,-235 745.5,-294 745.5,-294 745.5,-300 739.5,-306 733.5,-306"/>
<text text-anchor="start" x="586.5" y="-290.8" font-family="Helvetica,sans-Serif" font-size="14.00" fill="#000000">StockOptionLevel ≤ 0.5</text>
<text text-anchor="start" x="611" y="-275.8" font-family="Helvetica,sans-Serif" font-size="14.00" fill="#000000">entropy = 0.573</text>
<text text-anchor="start" x="610" y="-260.8" font-family="Helvetica,sans-Serif" font-size="14.00" fill="#000000">samples = 1237</text>
<text text-anchor="start" x="600" y="-245.8" font-family="Helvetica,sans-Serif" font-size="14.00" fill="#000000">value = [1069, 168]</text>
<text text-anchor="start" x="633" y="-230.8" font-family="Helvetica,sans-Serif" font-size="14.00" fill="#000000">class = 1</text>
</g>
<!-- 0&#45;&gt;8 -->
<g id="edge8" class="edge">
<title>0&#45;&gt;8</title>
<path fill="none" stroke="#000000" d="M598.9259,-341.8796C606.1938,-332.9633 613.943,-323.4565 621.4328,-314.268"/>
<polygon fill="#000000" stroke="#000000" points="624.324,-316.2606 627.9293,-306.2981 618.8982,-311.8379 624.324,-316.2606"/>
<text text-anchor="middle" x="630.4625" y="-327.4694" font-family="Helvetica,sans-Serif" font-size="14.00" fill="#000000">False</text>
</g>
<!-- 2 -->
<g id="node3" class="node">
<title>2</title>
<path fill="#f8decb" stroke="#000000" d="M248.5,-187C248.5,-187 139.5,-187 139.5,-187 133.5,-187 127.5,-181 127.5,-175 127.5,-175 127.5,-116 127.5,-116 127.5,-110 133.5,-104 139.5,-104 139.5,-104 248.5,-104 248.5,-104 254.5,-104 260.5,-110 260.5,-116 260.5,-116 260.5,-175 260.5,-175 260.5,-181 254.5,-187 248.5,-187"/>
<text text-anchor="start" x="135.5" y="-171.8" font-family="Helvetica,sans-Serif" font-size="14.00" fill="#000000">HourlyRate ≤ 55.5</text>
<text text-anchor="start" x="143" y="-156.8" font-family="Helvetica,sans-Serif" font-size="14.00" fill="#000000">entropy = 0.984</text>
<text text-anchor="start" x="150" y="-141.8" font-family="Helvetica,sans-Serif" font-size="14.00" fill="#000000">samples = 73</text>
<text text-anchor="start" x="144" y="-126.8" font-family="Helvetica,sans-Serif" font-size="14.00" fill="#000000">value = [42, 31]</text>
<text text-anchor="start" x="165" y="-111.8" font-family="Helvetica,sans-Serif" font-size="14.00" fill="#000000">class = 1</text>
</g>
<!-- 1&#45;&gt;2 -->
<g id="edge2" class="edge">
<title>1&#45;&gt;2</title>
<path fill="none" stroke="#000000" d="M326.0005,-222.8796C307.6417,-212.1176 287.8153,-200.4952 269.2475,-189.6106"/>
<polygon fill="#000000" stroke="#000000" points="270.9283,-186.5389 260.5313,-184.5011 267.3882,-192.5778 270.9283,-186.5389"/>
</g>
<!-- 5 -->
<g id="node6" class="node">
<title>5</title>
<path fill="#49a5e7" stroke="#000000" d="M455,-187C455,-187 339,-187 339,-187 333,-187 327,-181 327,-175 327,-175 327,-116 327,-116 327,-110 333,-104 339,-104 339,-104 455,-104 455,-104 461,-104 467,-110 467,-116 467,-116 467,-175 467,-175 467,-181 461,-187 455,-187"/>
<text text-anchor="start" x="335" y="-171.8" font-family="Helvetica,sans-Serif" font-size="14.00" fill="#000000">DailyRate ≤ 1413.5</text>
<text text-anchor="start" x="346" y="-156.8" font-family="Helvetica,sans-Serif" font-size="14.00" fill="#000000">entropy = 0.391</text>
<text text-anchor="start" x="353" y="-141.8" font-family="Helvetica,sans-Serif" font-size="14.00" fill="#000000">samples = 13</text>
<text text-anchor="start" x="351.5" y="-126.8" font-family="Helvetica,sans-Serif" font-size="14.00" fill="#000000">value = [1, 12]</text>
<text text-anchor="start" x="368" y="-111.8" font-family="Helvetica,sans-Serif" font-size="14.00" fill="#000000">class = 0</text>
</g>
<!-- 1&#45;&gt;5 -->
<g id="edge5" class="edge">
<title>1&#45;&gt;5</title>
<path fill="none" stroke="#000000" d="M397,-222.8796C397,-214.6838 397,-205.9891 397,-197.5013"/>
<polygon fill="#000000" stroke="#000000" points="400.5001,-197.298 397,-187.2981 393.5001,-197.2981 400.5001,-197.298"/>
</g>
<!-- 3 -->
<g id="node4" class="node">
<title>3</title>
<path fill="#88c4ef" stroke="#000000" d="M106,-68C106,-68 12,-68 12,-68 6,-68 0,-62 0,-56 0,-56 0,-12 0,-12 0,-6 6,0 12,0 12,0 106,0 106,0 112,0 118,-6 118,-12 118,-12 118,-56 118,-56 118,-62 112,-68 106,-68"/>
<text text-anchor="start" x="8" y="-52.8" font-family="Helvetica,sans-Serif" font-size="14.00" fill="#000000">entropy = 0.863</text>
<text text-anchor="start" x="15" y="-37.8" font-family="Helvetica,sans-Serif" font-size="14.00" fill="#000000">samples = 21</text>
<text text-anchor="start" x="13.5" y="-22.8" font-family="Helvetica,sans-Serif" font-size="14.00" fill="#000000">value = [6, 15]</text>
<text text-anchor="start" x="30" y="-7.8" font-family="Helvetica,sans-Serif" font-size="14.00" fill="#000000">class = 0</text>
</g>
<!-- 2&#45;&gt;3 -->
<g id="edge3" class="edge">
<title>2&#45;&gt;3</title>
<path fill="none" stroke="#000000" d="M143.731,-103.9815C132.1582,-94.4232 119.8611,-84.2668 108.3287,-74.7419"/>
<polygon fill="#000000" stroke="#000000" points="110.4243,-71.9332 100.4852,-68.2637 105.9666,-77.3304 110.4243,-71.9332"/>
</g>
<!-- 4 -->
<g id="node5" class="node">
<title>4</title>
<path fill="#f1b991" stroke="#000000" d="M240,-68C240,-68 148,-68 148,-68 142,-68 136,-62 136,-56 136,-56 136,-12 136,-12 136,-6 142,0 148,0 148,0 240,0 240,0 246,0 252,-6 252,-12 252,-12 252,-56 252,-56 252,-62 246,-68 240,-68"/>
<text text-anchor="start" x="147" y="-52.8" font-family="Helvetica,sans-Serif" font-size="14.00" fill="#000000">entropy = 0.89</text>
<text text-anchor="start" x="150" y="-37.8" font-family="Helvetica,sans-Serif" font-size="14.00" fill="#000000">samples = 52</text>
<text text-anchor="start" x="144" y="-22.8" font-family="Helvetica,sans-Serif" font-size="14.00" fill="#000000">value = [36, 16]</text>
<text text-anchor="start" x="165" y="-7.8" font-family="Helvetica,sans-Serif" font-size="14.00" fill="#000000">class = 1</text>
</g>
<!-- 2&#45;&gt;4 -->
<g id="edge4" class="edge">
<title>2&#45;&gt;4</title>
<path fill="none" stroke="#000000" d="M194,-103.9815C194,-95.618 194,-86.7965 194,-78.3409"/>
<polygon fill="#000000" stroke="#000000" points="197.5001,-78.2636 194,-68.2637 190.5001,-78.2637 197.5001,-78.2636"/>
</g>
<!-- 6 -->
<g id="node7" class="node">
<title>6</title>
<path fill="#399de5" stroke="#000000" d="M365.5,-68C365.5,-68 282.5,-68 282.5,-68 276.5,-68 270.5,-62 270.5,-56 270.5,-56 270.5,-12 270.5,-12 270.5,-6 276.5,0 282.5,0 282.5,0 365.5,0 365.5,0 371.5,0 377.5,-6 377.5,-12 377.5,-12 377.5,-56 377.5,-56 377.5,-62 371.5,-68 365.5,-68"/>
<text text-anchor="start" x="281.5" y="-52.8" font-family="Helvetica,sans-Serif" font-size="14.00" fill="#000000">entropy = 0.0</text>
<text text-anchor="start" x="280" y="-37.8" font-family="Helvetica,sans-Serif" font-size="14.00" fill="#000000">samples = 12</text>
<text text-anchor="start" x="278.5" y="-22.8" font-family="Helvetica,sans-Serif" font-size="14.00" fill="#000000">value = [0, 12]</text>
<text text-anchor="start" x="295" y="-7.8" font-family="Helvetica,sans-Serif" font-size="14.00" fill="#000000">class = 0</text>
</g>
<!-- 5&#45;&gt;6 -->
<g id="edge6" class="edge">
<title>5&#45;&gt;6</title>
<path fill="none" stroke="#000000" d="M369.8175,-103.9815C363.9808,-95.0666 357.8034,-85.6313 351.9386,-76.6734"/>
<polygon fill="#000000" stroke="#000000" points="354.8386,-74.7129 346.4327,-68.2637 348.9821,-78.5472 354.8386,-74.7129"/>
</g>
<!-- 7 -->
<g id="node8" class="node">
<title>7</title>
<path fill="#e58139" stroke="#000000" d="M484.5,-68C484.5,-68 407.5,-68 407.5,-68 401.5,-68 395.5,-62 395.5,-56 395.5,-56 395.5,-12 395.5,-12 395.5,-6 401.5,0 407.5,0 407.5,0 484.5,0 484.5,0 490.5,0 496.5,-6 496.5,-12 496.5,-12 496.5,-56 496.5,-56 496.5,-62 490.5,-68 484.5,-68"/>
<text text-anchor="start" x="403.5" y="-52.8" font-family="Helvetica,sans-Serif" font-size="14.00" fill="#000000">entropy = 0.0</text>
<text text-anchor="start" x="406.5" y="-37.8" font-family="Helvetica,sans-Serif" font-size="14.00" fill="#000000">samples = 1</text>
<text text-anchor="start" x="404.5" y="-22.8" font-family="Helvetica,sans-Serif" font-size="14.00" fill="#000000">value = [1, 0]</text>
<text text-anchor="start" x="417" y="-7.8" font-family="Helvetica,sans-Serif" font-size="14.00" fill="#000000">class = 1</text>
</g>
<!-- 5&#45;&gt;7 -->
<g id="edge7" class="edge">
<title>5&#45;&gt;7</title>
<path fill="none" stroke="#000000" d="M415.2458,-103.9815C419.0424,-95.3423 423.0538,-86.2144 426.8808,-77.5059"/>
<polygon fill="#000000" stroke="#000000" points="430.1233,-78.8268 430.9424,-68.2637 423.7149,-76.0105 430.1233,-78.8268"/>
</g>
<!-- 9 -->
<g id="node10" class="node">
<title>9</title>
<path fill="#eca16b" stroke="#000000" d="M716,-187C716,-187 608,-187 608,-187 602,-187 596,-181 596,-175 596,-175 596,-116 596,-116 596,-110 602,-104 608,-104 608,-104 716,-104 716,-104 722,-104 728,-110 728,-116 728,-116 728,-175 728,-175 728,-181 722,-187 716,-187"/>
<text text-anchor="start" x="627" y="-171.8" font-family="Helvetica,sans-Serif" font-size="14.00" fill="#000000">Age ≤ 33.5</text>
<text text-anchor="start" x="611" y="-156.8" font-family="Helvetica,sans-Serif" font-size="14.00" fill="#000000">entropy = 0.728</text>
<text text-anchor="start" x="614" y="-141.8" font-family="Helvetica,sans-Serif" font-size="14.00" fill="#000000">samples = 512</text>
<text text-anchor="start" x="604" y="-126.8" font-family="Helvetica,sans-Serif" font-size="14.00" fill="#000000">value = [408, 104]</text>
<text text-anchor="start" x="633" y="-111.8" font-family="Helvetica,sans-Serif" font-size="14.00" fill="#000000">class = 1</text>
</g>
<!-- 8&#45;&gt;9 -->
<g id="edge9" class="edge">
<title>8&#45;&gt;9</title>
<path fill="none" stroke="#000000" d="M662,-222.8796C662,-214.6838 662,-205.9891 662,-197.5013"/>
<polygon fill="#000000" stroke="#000000" points="665.5001,-197.298 662,-187.2981 658.5001,-197.2981 665.5001,-197.298"/>
</g>
<!-- 12 -->
<g id="node13" class="node">
<title>12</title>
<path fill="#e88d4c" stroke="#000000" d="M934,-187C934,-187 782,-187 782,-187 776,-187 770,-181 770,-175 770,-175 770,-116 770,-116 770,-110 776,-104 782,-104 782,-104 934,-104 934,-104 940,-104 946,-110 946,-116 946,-116 946,-175 946,-175 946,-181 940,-187 934,-187"/>
<text text-anchor="start" x="778" y="-171.8" font-family="Helvetica,sans-Serif" font-size="14.00" fill="#000000">MonthlyIncome ≤ 2464.5</text>
<text text-anchor="start" x="807" y="-156.8" font-family="Helvetica,sans-Serif" font-size="14.00" fill="#000000">entropy = 0.431</text>
<text text-anchor="start" x="810" y="-141.8" font-family="Helvetica,sans-Serif" font-size="14.00" fill="#000000">samples = 725</text>
<text text-anchor="start" x="804" y="-126.8" font-family="Helvetica,sans-Serif" font-size="14.00" fill="#000000">value = [661, 64]</text>
<text text-anchor="start" x="829" y="-111.8" font-family="Helvetica,sans-Serif" font-size="14.00" fill="#000000">class = 1</text>
</g>
<!-- 8&#45;&gt;12 -->
<g id="edge12" class="edge">
<title>8&#45;&gt;12</title>
<path fill="none" stroke="#000000" d="M730.5513,-222.8796C746.8143,-213.0056 764.2701,-202.4075 780.8858,-192.3193"/>
<polygon fill="#000000" stroke="#000000" points="782.756,-195.2785 789.4874,-187.0969 779.1231,-189.295 782.756,-195.2785"/>
</g>
<!-- 10 -->
<g id="node11" class="node">
<title>10</title>
<path fill="#f0b890" stroke="#000000" d="M627,-68C627,-68 527,-68 527,-68 521,-68 515,-62 515,-56 515,-56 515,-12 515,-12 515,-6 521,0 527,0 527,0 627,0 627,0 633,0 639,-6 639,-12 639,-12 639,-56 639,-56 639,-62 633,-68 627,-68"/>
<text text-anchor="start" x="526" y="-52.8" font-family="Helvetica,sans-Serif" font-size="14.00" fill="#000000">entropy = 0.887</text>
<text text-anchor="start" x="529" y="-37.8" font-family="Helvetica,sans-Serif" font-size="14.00" fill="#000000">samples = 200</text>
<text text-anchor="start" x="523" y="-22.8" font-family="Helvetica,sans-Serif" font-size="14.00" fill="#000000">value = [139, 61]</text>
<text text-anchor="start" x="548" y="-7.8" font-family="Helvetica,sans-Serif" font-size="14.00" fill="#000000">class = 1</text>
</g>
<!-- 9&#45;&gt;10 -->
<g id="edge10" class="edge">
<title>9&#45;&gt;10</title>
<path fill="none" stroke="#000000" d="M630.3491,-103.9815C623.4829,-94.9747 616.2118,-85.4367 609.3202,-76.3965"/>
<polygon fill="#000000" stroke="#000000" points="611.9664,-74.0945 603.1203,-68.2637 606.3995,-78.3383 611.9664,-74.0945"/>
</g>
<!-- 11 -->
<g id="node12" class="node">
<title>11</title>
<path fill="#e99559" stroke="#000000" d="M769,-68C769,-68 669,-68 669,-68 663,-68 657,-62 657,-56 657,-56 657,-12 657,-12 657,-6 663,0 669,0 669,0 769,0 769,0 775,0 781,-6 781,-12 781,-12 781,-56 781,-56 781,-62 775,-68 769,-68"/>
<text text-anchor="start" x="668" y="-52.8" font-family="Helvetica,sans-Serif" font-size="14.00" fill="#000000">entropy = 0.579</text>
<text text-anchor="start" x="671" y="-37.8" font-family="Helvetica,sans-Serif" font-size="14.00" fill="#000000">samples = 312</text>
<text text-anchor="start" x="665" y="-22.8" font-family="Helvetica,sans-Serif" font-size="14.00" fill="#000000">value = [269, 43]</text>
<text text-anchor="start" x="690" y="-7.8" font-family="Helvetica,sans-Serif" font-size="14.00" fill="#000000">class = 1</text>
</g>
<!-- 9&#45;&gt;11 -->
<g id="edge11" class="edge">
<title>9&#45;&gt;11</title>
<path fill="none" stroke="#000000" d="M683.2247,-103.9815C687.6881,-95.2504 692.4067,-86.0202 696.9013,-77.2281"/>
<polygon fill="#000000" stroke="#000000" points="700.0486,-78.7608 701.484,-68.2637 693.8158,-75.5745 700.0486,-78.7608"/>
</g>
<!-- 13 -->
<g id="node14" class="node">
<title>13</title>
<path fill="#eda672" stroke="#000000" d="M905,-68C905,-68 811,-68 811,-68 805,-68 799,-62 799,-56 799,-56 799,-12 799,-12 799,-6 805,0 811,0 811,0 905,0 905,0 911,0 917,-6 917,-12 917,-12 917,-56 917,-56 917,-62 911,-68 905,-68"/>
<text text-anchor="start" x="807" y="-52.8" font-family="Helvetica,sans-Serif" font-size="14.00" fill="#000000">entropy = 0.769</text>
<text text-anchor="start" x="814" y="-37.8" font-family="Helvetica,sans-Serif" font-size="14.00" fill="#000000">samples = 80</text>
<text text-anchor="start" x="808" y="-22.8" font-family="Helvetica,sans-Serif" font-size="14.00" fill="#000000">value = [62, 18]</text>
<text text-anchor="start" x="829" y="-7.8" font-family="Helvetica,sans-Serif" font-size="14.00" fill="#000000">class = 1</text>
</g>
<!-- 12&#45;&gt;13 -->
<g id="edge13" class="edge">
<title>12&#45;&gt;13</title>
<path fill="none" stroke="#000000" d="M858,-103.9815C858,-95.618 858,-86.7965 858,-78.3409"/>
<polygon fill="#000000" stroke="#000000" points="861.5001,-78.2636 858,-68.2637 854.5001,-78.2637 861.5001,-78.2636"/>
</g>
<!-- 14 -->
<g id="node15" class="node">
<title>14</title>
<path fill="#e78b48" stroke="#000000" d="M1047,-68C1047,-68 947,-68 947,-68 941,-68 935,-62 935,-56 935,-56 935,-12 935,-12 935,-6 941,0 947,0 947,0 1047,0 1047,0 1053,0 1059,-6 1059,-12 1059,-12 1059,-56 1059,-56 1059,-62 1053,-68 1047,-68"/>
<text text-anchor="start" x="946" y="-52.8" font-family="Helvetica,sans-Serif" font-size="14.00" fill="#000000">entropy = 0.371</text>
<text text-anchor="start" x="949" y="-37.8" font-family="Helvetica,sans-Serif" font-size="14.00" fill="#000000">samples = 645</text>
<text text-anchor="start" x="943" y="-22.8" font-family="Helvetica,sans-Serif" font-size="14.00" fill="#000000">value = [599, 46]</text>
<text text-anchor="start" x="968" y="-7.8" font-family="Helvetica,sans-Serif" font-size="14.00" fill="#000000">class = 1</text>
</g>
<!-- 12&#45;&gt;14 -->
<g id="edge14" class="edge">
<title>12&#45;&gt;14</title>
<path fill="none" stroke="#000000" d="M909.7585,-103.9815C921.6742,-94.4232 934.3356,-84.2668 946.2097,-74.7419"/>
<polygon fill="#000000" stroke="#000000" points="948.6752,-77.2511 954.2856,-68.2637 944.2951,-71.7907 948.6752,-77.2511"/>
</g>
</g>
</svg>
