<?xml version="1.0" encoding="UTF-8" standalone="no"?>
<!DOCTYPE svg PUBLIC "-//W3C//DTD SVG 1.1//EN"
 "http://www.w3.org/Graphics/SVG/1.1/DTD/svg11.dtd">
<!-- Generated by graphviz version 2.40.1 (20161225.0304)
 -->
<!-- Title: Tree Pages: 1 -->
<svg width="1725pt" height="552pt"
 viewBox="0.00 0.00 1724.50 552.00" xmlns="http://www.w3.org/2000/svg" xmlns:xlink="http://www.w3.org/1999/xlink">
<g id="graph0" class="graph" transform="scale(1 1) rotate(0) translate(4 548)">
<title>Tree</title>
<polygon fill="#ffffff" stroke="transparent" points="-4,4 -4,-548 1720.5,-548 1720.5,4 -4,4"/>
<!-- 0 -->
<g id="node1" class="node">
<title>0</title>
<path fill="#ea995f" stroke="#000000" d="M806.5,-544C806.5,-544 657.5,-544 657.5,-544 651.5,-544 645.5,-538 645.5,-532 645.5,-532 645.5,-473 645.5,-473 645.5,-467 651.5,-461 657.5,-461 657.5,-461 806.5,-461 806.5,-461 812.5,-461 818.5,-467 818.5,-473 818.5,-473 818.5,-532 818.5,-532 818.5,-538 812.5,-544 806.5,-544"/>
<text text-anchor="start" x="653.5" y="-528.8" font-family="Helvetica,sans-Serif" font-size="14.00" fill="#000000">TotalWorkingYears ≤ 1.5</text>
<text text-anchor="start" x="681" y="-513.8" font-family="Helvetica,sans-Serif" font-size="14.00" fill="#000000">entropy = 0.633</text>
<text text-anchor="start" x="680" y="-498.8" font-family="Helvetica,sans-Serif" font-size="14.00" fill="#000000">samples = 1323</text>
<text text-anchor="start" x="670" y="-483.8" font-family="Helvetica,sans-Serif" font-size="14.00" fill="#000000">value = [1112, 211]</text>
<text text-anchor="start" x="703" y="-468.8" font-family="Helvetica,sans-Serif" font-size="14.00" fill="#000000">class = 1</text>
</g>
<!-- 1 -->
<g id="node2" class="node">
<title>1</title>
<path fill="#ffffff" stroke="#000000" d="M722.5,-425C722.5,-425 469.5,-425 469.5,-425 463.5,-425 457.5,-419 457.5,-413 457.5,-413 457.5,-354 457.5,-354 457.5,-348 463.5,-342 469.5,-342 469.5,-342 722.5,-342 722.5,-342 728.5,-342 734.5,-348 734.5,-354 734.5,-354 734.5,-413 734.5,-413 734.5,-419 728.5,-425 722.5,-425"/>
<text text-anchor="start" x="465.5" y="-409.8" font-family="Helvetica,sans-Serif" font-size="14.00" fill="#000000">BusinessTravel_Travel_Frequently ≤ 0.5</text>
<text text-anchor="start" x="553.5" y="-394.8" font-family="Helvetica,sans-Serif" font-size="14.00" fill="#000000">entropy = 1.0</text>
<text text-anchor="start" x="552" y="-379.8" font-family="Helvetica,sans-Serif" font-size="14.00" fill="#000000">samples = 86</text>
<text text-anchor="start" x="546" y="-364.8" font-family="Helvetica,sans-Serif" font-size="14.00" fill="#000000">value = [43, 43]</text>
<text text-anchor="start" x="567" y="-349.8" font-family="Helvetica,sans-Serif" font-size="14.00" fill="#000000">class = 1</text>
</g>
<!-- 0&#45;&gt;1 -->
<g id="edge1" class="edge">
<title>0&#45;&gt;1</title>
<path fill="none" stroke="#000000" d="M684.4338,-460.8796C673.8321,-451.6031 662.4998,-441.6874 651.6067,-432.1559"/>
<polygon fill="#000000" stroke="#000000" points="653.5998,-429.2491 643.7692,-425.2981 648.9902,-434.5172 653.5998,-429.2491"/>
<text text-anchor="middle" x="645.4322" y="-446.5427" font-family="Helvetica,sans-Serif" font-size="14.00" fill="#000000">True</text>
</g>
<!-- 12 -->
<g id="node13" class="node">
<title>12</title>
<path fill="#e99558" stroke="#000000" d="M1029.5,-425C1029.5,-425 886.5,-425 886.5,-425 880.5,-425 874.5,-419 874.5,-413 874.5,-413 874.5,-354 874.5,-354 874.5,-348 880.5,-342 886.5,-342 886.5,-342 1029.5,-342 1029.5,-342 1035.5,-342 1041.5,-348 1041.5,-354 1041.5,-354 1041.5,-413 1041.5,-413 1041.5,-419 1035.5,-425 1029.5,-425"/>
<text text-anchor="start" x="882.5" y="-409.8" font-family="Helvetica,sans-Serif" font-size="14.00" fill="#000000">StockOptionLevel ≤ 0.5</text>
<text text-anchor="start" x="907" y="-394.8" font-family="Helvetica,sans-Serif" font-size="14.00" fill="#000000">entropy = 0.573</text>
<text text-anchor="start" x="906" y="-379.8" font-family="Helvetica,sans-Serif" font-size="14.00" fill="#000000">samples = 1237</text>
<text text-anchor="start" x="896" y="-364.8" font-family="Helvetica,sans-Serif" font-size="14.00" fill="#000000">value = [1069, 168]</text>
<text text-anchor="start" x="929" y="-349.8" font-family="Helvetica,sans-Serif" font-size="14.00" fill="#000000">class = 1</text>
</g>
<!-- 0&#45;&gt;12 -->
<g id="edge12" class="edge">
<title>0&#45;&gt;12</title>
<path fill="none" stroke="#000000" d="M811.0438,-460.8796C830.1401,-450.8244 850.6627,-440.0183 870.1362,-429.7645"/>
<polygon fill="#000000" stroke="#000000" points="871.7831,-432.853 879.0008,-425.0969 868.5218,-426.6591 871.7831,-432.853"/>
<text text-anchor="middle" x="871.5952" y="-445.2749" font-family="Helvetica,sans-Serif" font-size="14.00" fill="#000000">False</text>
</g>
<!-- 2 -->
<g id="node3" class="node">
<title>2</title>
<path fill="#f8decb" stroke="#000000" d="M470.5,-306C470.5,-306 309.5,-306 309.5,-306 303.5,-306 297.5,-300 297.5,-294 297.5,-294 297.5,-235 297.5,-235 297.5,-229 303.5,-223 309.5,-223 309.5,-223 470.5,-223 470.5,-223 476.5,-223 482.5,-229 482.5,-235 482.5,-235 482.5,-294 482.5,-294 482.5,-300 476.5,-306 470.5,-306"/>
<text text-anchor="start" x="305.5" y="-290.8" font-family="Helvetica,sans-Serif" font-size="14.00" fill="#000000">MaritalStatus_Single ≤ 0.5</text>
<text text-anchor="start" x="339" y="-275.8" font-family="Helvetica,sans-Serif" font-size="14.00" fill="#000000">entropy = 0.984</text>
<text text-anchor="start" x="346" y="-260.8" font-family="Helvetica,sans-Serif" font-size="14.00" fill="#000000">samples = 73</text>
<text text-anchor="start" x="340" y="-245.8" font-family="Helvetica,sans-Serif" font-size="14.00" fill="#000000">value = [42, 31]</text>
<text text-anchor="start" x="361" y="-230.8" font-family="Helvetica,sans-Serif" font-size="14.00" fill="#000000">class = 1</text>
</g>
<!-- 1&#45;&gt;2 -->
<g id="edge2" class="edge">
<title>1&#45;&gt;2</title>
<path fill="none" stroke="#000000" d="M523.9512,-341.8796C506.8585,-332.0056 488.5121,-321.4075 471.0486,-311.3193"/>
<polygon fill="#000000" stroke="#000000" points="472.4179,-308.0684 462.0081,-306.0969 468.9164,-314.1297 472.4179,-308.0684"/>
</g>
<!-- 9 -->
<g id="node10" class="node">
<title>9</title>
<path fill="#49a5e7" stroke="#000000" d="M643,-306C643,-306 549,-306 549,-306 543,-306 537,-300 537,-294 537,-294 537,-235 537,-235 537,-229 543,-223 549,-223 549,-223 643,-223 643,-223 649,-223 655,-229 655,-235 655,-235 655,-294 655,-294 655,-300 649,-306 643,-306"/>
<text text-anchor="start" x="561" y="-290.8" font-family="Helvetica,sans-Serif" font-size="14.00" fill="#000000">Age ≤ 34.5</text>
<text text-anchor="start" x="545" y="-275.8" font-family="Helvetica,sans-Serif" font-size="14.00" fill="#000000">entropy = 0.391</text>
<text text-anchor="start" x="552" y="-260.8" font-family="Helvetica,sans-Serif" font-size="14.00" fill="#000000">samples = 13</text>
<text text-anchor="start" x="550.5" y="-245.8" font-family="Helvetica,sans-Serif" font-size="14.00" fill="#000000">value = [1, 12]</text>
<text text-anchor="start" x="567" y="-230.8" font-family="Helvetica,sans-Serif" font-size="14.00" fill="#000000">class = 0</text>
</g>
<!-- 1&#45;&gt;9 -->
<g id="edge9" class="edge">
<title>1&#45;&gt;9</title>
<path fill="none" stroke="#000000" d="M596,-341.8796C596,-333.6838 596,-324.9891 596,-316.5013"/>
<polygon fill="#000000" stroke="#000000" points="599.5001,-316.298 596,-306.2981 592.5001,-316.2981 599.5001,-316.298"/>
</g>
<!-- 3 -->
<g id="node4" class="node">
<title>3</title>
<path fill="#eeac7d" stroke="#000000" d="M242,-187C242,-187 90,-187 90,-187 84,-187 78,-181 78,-175 78,-175 78,-116 78,-116 78,-110 84,-104 90,-104 90,-104 242,-104 242,-104 248,-104 254,-110 254,-116 254,-116 254,-175 254,-175 254,-181 248,-187 242,-187"/>
<text text-anchor="start" x="86" y="-171.8" font-family="Helvetica,sans-Serif" font-size="14.00" fill="#000000">MonthlyIncome ≤ 2540.5</text>
<text text-anchor="start" x="115" y="-156.8" font-family="Helvetica,sans-Serif" font-size="14.00" fill="#000000">entropy = 0.821</text>
<text text-anchor="start" x="122" y="-141.8" font-family="Helvetica,sans-Serif" font-size="14.00" fill="#000000">samples = 39</text>
<text text-anchor="start" x="116" y="-126.8" font-family="Helvetica,sans-Serif" font-size="14.00" fill="#000000">value = [29, 10]</text>
<text text-anchor="start" x="137" y="-111.8" font-family="Helvetica,sans-Serif" font-size="14.00" fill="#000000">class = 1</text>
</g>
<!-- 2&#45;&gt;3 -->
<g id="edge3" class="edge">
<title>2&#45;&gt;3</title>
<path fill="none" stroke="#000000" d="M311.6557,-222.8796C292.8136,-212.8697 272.5706,-202.1156 253.3471,-191.9031"/>
<polygon fill="#000000" stroke="#000000" points="254.7733,-188.6976 244.3001,-187.0969 251.4892,-194.8794 254.7733,-188.6976"/>
</g>
<!-- 6 -->
<g id="node7" class="node">
<title>6</title>
<path fill="#b4daf5" stroke="#000000" d="M496,-187C496,-187 284,-187 284,-187 278,-187 272,-181 272,-175 272,-175 272,-116 272,-116 272,-110 278,-104 284,-104 284,-104 496,-104 496,-104 502,-104 508,-110 508,-116 508,-116 508,-175 508,-175 508,-181 502,-187 496,-187"/>
<text text-anchor="start" x="280" y="-171.8" font-family="Helvetica,sans-Serif" font-size="14.00" fill="#000000">JobRole_Research Scientist ≤ 0.5</text>
<text text-anchor="start" x="343" y="-156.8" font-family="Helvetica,sans-Serif" font-size="14.00" fill="#000000">entropy = 0.96</text>
<text text-anchor="start" x="346" y="-141.8" font-family="Helvetica,sans-Serif" font-size="14.00" fill="#000000">samples = 34</text>
<text text-anchor="start" x="340" y="-126.8" font-family="Helvetica,sans-Serif" font-size="14.00" fill="#000000">value = [13, 21]</text>
<text text-anchor="start" x="361" y="-111.8" font-family="Helvetica,sans-Serif" font-size="14.00" fill="#000000">class = 0</text>
</g>
<!-- 2&#45;&gt;6 -->
<g id="edge6" class="edge">
<title>2&#45;&gt;6</title>
<path fill="none" stroke="#000000" d="M390,-222.8796C390,-214.6838 390,-205.9891 390,-197.5013"/>
<polygon fill="#000000" stroke="#000000" points="393.5001,-197.298 390,-187.2981 386.5001,-197.2981 393.5001,-197.298"/>
</g>
<!-- 4 -->
<g id="node5" class="node">
<title>4</title>
<path fill="#f3c3a1" stroke="#000000" d="M106,-68C106,-68 12,-68 12,-68 6,-68 0,-62 0,-56 0,-56 0,-12 0,-12 0,-6 6,0 12,0 12,0 106,0 106,0 112,0 118,-6 118,-12 118,-12 118,-56 118,-56 118,-62 112,-68 106,-68"/>
<text text-anchor="start" x="8" y="-52.8" font-family="Helvetica,sans-Serif" font-size="14.00" fill="#000000">entropy = 0.929</text>
<text text-anchor="start" x="15" y="-37.8" font-family="Helvetica,sans-Serif" font-size="14.00" fill="#000000">samples = 29</text>
<text text-anchor="start" x="9" y="-22.8" font-family="Helvetica,sans-Serif" font-size="14.00" fill="#000000">value = [19, 10]</text>
<text text-anchor="start" x="30" y="-7.8" font-family="Helvetica,sans-Serif" font-size="14.00" fill="#000000">class = 1</text>
</g>
<!-- 3&#45;&gt;4 -->
<g id="edge4" class="edge">
<title>3&#45;&gt;4</title>
<path fill="none" stroke="#000000" d="M126.1571,-103.9815C117.2492,-94.6989 107.7999,-84.8522 98.8901,-75.5677"/>
<polygon fill="#000000" stroke="#000000" points="101.3302,-73.0555 91.8808,-68.2637 96.2795,-77.9023 101.3302,-73.0555"/>
</g>
<!-- 5 -->
<g id="node6" class="node">
<title>5</title>
<path fill="#e58139" stroke="#000000" d="M231.5,-68C231.5,-68 148.5,-68 148.5,-68 142.5,-68 136.5,-62 136.5,-56 136.5,-56 136.5,-12 136.5,-12 136.5,-6 142.5,0 148.5,0 148.5,0 231.5,0 231.5,0 237.5,0 243.5,-6 243.5,-12 243.5,-12 243.5,-56 243.5,-56 243.5,-62 237.5,-68 231.5,-68"/>
<text text-anchor="start" x="147.5" y="-52.8" font-family="Helvetica,sans-Serif" font-size="14.00" fill="#000000">entropy = 0.0</text>
<text text-anchor="start" x="146" y="-37.8" font-family="Helvetica,sans-Serif" font-size="14.00" fill="#000000">samples = 10</text>
<text text-anchor="start" x="144.5" y="-22.8" font-family="Helvetica,sans-Serif" font-size="14.00" fill="#000000">value = [10, 0]</text>
<text text-anchor="start" x="161" y="-7.8" font-family="Helvetica,sans-Serif" font-size="14.00" fill="#000000">class = 1</text>
</g>
<!-- 3&#45;&gt;5 -->
<g id="edge5" class="edge">
<title>3&#45;&gt;5</title>
<path fill="none" stroke="#000000" d="M174.9367,-103.9815C176.7567,-95.5261 178.6775,-86.6026 180.5157,-78.0623"/>
<polygon fill="#000000" stroke="#000000" points="183.9421,-78.7763 182.6249,-68.2637 177.0989,-77.3032 183.9421,-78.7763"/>
</g>
<!-- 7 -->
<g id="node8" class="node">
<title>7</title>
<path fill="#6ab6ec" stroke="#000000" d="M414,-68C414,-68 320,-68 320,-68 314,-68 308,-62 308,-56 308,-56 308,-12 308,-12 308,-6 314,0 320,0 320,0 414,0 414,0 420,0 426,-6 426,-12 426,-12 426,-56 426,-56 426,-62 420,-68 414,-68"/>
<text text-anchor="start" x="316" y="-52.8" font-family="Helvetica,sans-Serif" font-size="14.00" fill="#000000">entropy = 0.722</text>
<text text-anchor="start" x="323" y="-37.8" font-family="Helvetica,sans-Serif" font-size="14.00" fill="#000000">samples = 20</text>
<text text-anchor="start" x="321.5" y="-22.8" font-family="Helvetica,sans-Serif" font-size="14.00" fill="#000000">value = [4, 16]</text>
<text text-anchor="start" x="338" y="-7.8" font-family="Helvetica,sans-Serif" font-size="14.00" fill="#000000">class = 0</text>
</g>
<!-- 6&#45;&gt;7 -->
<g id="edge7" class="edge">
<title>6&#45;&gt;7</title>
<path fill="none" stroke="#000000" d="M381.4356,-103.9815C379.6915,-95.5261 377.8508,-86.6026 376.0891,-78.0623"/>
<polygon fill="#000000" stroke="#000000" points="379.516,-77.3504 374.0678,-68.2637 372.6603,-78.7646 379.516,-77.3504"/>
</g>
<!-- 8 -->
<g id="node9" class="node">
<title>8</title>
<path fill="#f3c7a7" stroke="#000000" d="M542,-68C542,-68 456,-68 456,-68 450,-68 444,-62 444,-56 444,-56 444,-12 444,-12 444,-6 450,0 456,0 456,0 542,0 542,0 548,0 554,-6 554,-12 554,-12 554,-56 554,-56 554,-62 548,-68 542,-68"/>
<text text-anchor="start" x="452" y="-52.8" font-family="Helvetica,sans-Serif" font-size="14.00" fill="#000000">entropy = 0.94</text>
<text text-anchor="start" x="455" y="-37.8" font-family="Helvetica,sans-Serif" font-size="14.00" fill="#000000">samples = 14</text>
<text text-anchor="start" x="457.5" y="-22.8" font-family="Helvetica,sans-Serif" font-size="14.00" fill="#000000">value = [9, 5]</text>
<text text-anchor="start" x="470" y="-7.8" font-family="Helvetica,sans-Serif" font-size="14.00" fill="#000000">class = 1</text>
</g>
<!-- 6&#45;&gt;8 -->
<g id="edge8" class="edge">
<title>6&#45;&gt;8</title>
<path fill="none" stroke="#000000" d="M430.5876,-103.9815C439.662,-94.6989 449.2879,-84.8522 458.3643,-75.5677"/>
<polygon fill="#000000" stroke="#000000" points="461.0169,-77.8611 465.5046,-68.2637 456.0113,-72.9678 461.0169,-77.8611"/>
</g>
<!-- 10 -->
<g id="node11" class="node">
<title>10</title>
<path fill="#399de5" stroke="#000000" d="M621.5,-179.5C621.5,-179.5 538.5,-179.5 538.5,-179.5 532.5,-179.5 526.5,-173.5 526.5,-167.5 526.5,-167.5 526.5,-123.5 526.5,-123.5 526.5,-117.5 532.5,-111.5 538.5,-111.5 538.5,-111.5 621.5,-111.5 621.5,-111.5 627.5,-111.5 633.5,-117.5 633.5,-123.5 633.5,-123.5 633.5,-167.5 633.5,-167.5 633.5,-173.5 627.5,-179.5 621.5,-179.5"/>
<text text-anchor="start" x="537.5" y="-164.3" font-family="Helvetica,sans-Serif" font-size="14.00" fill="#000000">entropy = 0.0</text>
<text text-anchor="start" x="536" y="-149.3" font-family="Helvetica,sans-Serif" font-size="14.00" fill="#000000">samples = 12</text>
<text text-anchor="start" x="534.5" y="-134.3" font-family="Helvetica,sans-Serif" font-size="14.00" fill="#000000">value = [0, 12]</text>
<text text-anchor="start" x="551" y="-119.3" font-family="Helvetica,sans-Serif" font-size="14.00" fill="#000000">class = 0</text>
</g>
<!-- 9&#45;&gt;10 -->
<g id="edge10" class="edge">
<title>9&#45;&gt;10</title>
<path fill="none" stroke="#000000" d="M590.404,-222.8796C588.9699,-212.2134 587.4221,-200.7021 585.97,-189.9015"/>
<polygon fill="#000000" stroke="#000000" points="589.4152,-189.2593 584.6138,-179.8149 582.4776,-190.1922 589.4152,-189.2593"/>
</g>
<!-- 11 -->
<g id="node12" class="node">
<title>11</title>
<path fill="#e58139" stroke="#000000" d="M740.5,-179.5C740.5,-179.5 663.5,-179.5 663.5,-179.5 657.5,-179.5 651.5,-173.5 651.5,-167.5 651.5,-167.5 651.5,-123.5 651.5,-123.5 651.5,-117.5 657.5,-111.5 663.5,-111.5 663.5,-111.5 740.5,-111.5 740.5,-111.5 746.5,-111.5 752.5,-117.5 752.5,-123.5 752.5,-123.5 752.5,-167.5 752.5,-167.5 752.5,-173.5 746.5,-179.5 740.5,-179.5"/>
<text text-anchor="start" x="659.5" y="-164.3" font-family="Helvetica,sans-Serif" font-size="14.00" fill="#000000">entropy = 0.0</text>
<text text-anchor="start" x="662.5" y="-149.3" font-family="Helvetica,sans-Serif" font-size="14.00" fill="#000000">samples = 1</text>
<text text-anchor="start" x="660.5" y="-134.3" font-family="Helvetica,sans-Serif" font-size="14.00" fill="#000000">value = [1, 0]</text>
<text text-anchor="start" x="673" y="-119.3" font-family="Helvetica,sans-Serif" font-size="14.00" fill="#000000">class = 1</text>
</g>
<!-- 9&#45;&gt;11 -->
<g id="edge11" class="edge">
<title>9&#45;&gt;11</title>
<path fill="none" stroke="#000000" d="M633.0737,-222.8796C643.2603,-211.4436 654.3122,-199.0363 664.5215,-187.575"/>
<polygon fill="#000000" stroke="#000000" points="667.3958,-189.6101 671.4338,-179.8149 662.1688,-184.9541 667.3958,-189.6101"/>
</g>
<!-- 13 -->
<g id="node14" class="node">
<title>13</title>
<path fill="#eca16b" stroke="#000000" d="M1012,-306C1012,-306 904,-306 904,-306 898,-306 892,-300 892,-294 892,-294 892,-235 892,-235 892,-229 898,-223 904,-223 904,-223 1012,-223 1012,-223 1018,-223 1024,-229 1024,-235 1024,-235 1024,-294 1024,-294 1024,-300 1018,-306 1012,-306"/>
<text text-anchor="start" x="923" y="-290.8" font-family="Helvetica,sans-Serif" font-size="14.00" fill="#000000">Age ≤ 33.5</text>
<text text-anchor="start" x="907" y="-275.8" font-family="Helvetica,sans-Serif" font-size="14.00" fill="#000000">entropy = 0.728</text>
<text text-anchor="start" x="910" y="-260.8" font-family="Helvetica,sans-Serif" font-size="14.00" fill="#000000">samples = 512</text>
<text text-anchor="start" x="900" y="-245.8" font-family="Helvetica,sans-Serif" font-size="14.00" fill="#000000">value = [408, 104]</text>
<text text-anchor="start" x="929" y="-230.8" font-family="Helvetica,sans-Serif" font-size="14.00" fill="#000000">class = 1</text>
</g>
<!-- 12&#45;&gt;13 -->
<g id="edge13" class="edge">
<title>12&#45;&gt;13</title>
<path fill="none" stroke="#000000" d="M958,-341.8796C958,-333.6838 958,-324.9891 958,-316.5013"/>
<polygon fill="#000000" stroke="#000000" points="961.5001,-316.298 958,-306.2981 954.5001,-316.2981 961.5001,-316.298"/>
</g>
<!-- 20 -->
<g id="node21" class="node">
<title>20</title>
<path fill="#e88d4c" stroke="#000000" d="M1384,-306C1384,-306 1232,-306 1232,-306 1226,-306 1220,-300 1220,-294 1220,-294 1220,-235 1220,-235 1220,-229 1226,-223 1232,-223 1232,-223 1384,-223 1384,-223 1390,-223 1396,-229 1396,-235 1396,-235 1396,-294 1396,-294 1396,-300 1390,-306 1384,-306"/>
<text text-anchor="start" x="1228" y="-290.8" font-family="Helvetica,sans-Serif" font-size="14.00" fill="#000000">MonthlyIncome ≤ 2464.5</text>
<text text-anchor="start" x="1257" y="-275.8" font-family="Helvetica,sans-Serif" font-size="14.00" fill="#000000">entropy = 0.431</text>
<text text-anchor="start" x="1260" y="-260.8" font-family="Helvetica,sans-Serif" font-size="14.00" fill="#000000">samples = 725</text>
<text text-anchor="start" x="1254" y="-245.8" font-family="Helvetica,sans-Serif" font-size="14.00" fill="#000000">value = [661, 64]</text>
<text text-anchor="start" x="1279" y="-230.8" font-family="Helvetica,sans-Serif" font-size="14.00" fill="#000000">class = 1</text>
</g>
<!-- 12&#45;&gt;20 -->
<g id="edge20" class="edge">
<title>12&#45;&gt;20</title>
<path fill="none" stroke="#000000" d="M1041.8337,-354.9965C1092.4762,-337.7781 1157.2506,-315.7548 1210.2192,-297.7455"/>
<polygon fill="#000000" stroke="#000000" points="1211.6251,-300.9643 1219.9662,-294.4315 1209.3718,-294.3369 1211.6251,-300.9643"/>
</g>
<!-- 14 -->
<g id="node15" class="node">
<title>14</title>
<path fill="#f0b890" stroke="#000000" d="M923.5,-187C923.5,-187 782.5,-187 782.5,-187 776.5,-187 770.5,-181 770.5,-175 770.5,-175 770.5,-116 770.5,-116 770.5,-110 776.5,-104 782.5,-104 782.5,-104 923.5,-104 923.5,-104 929.5,-104 935.5,-110 935.5,-116 935.5,-116 935.5,-175 935.5,-175 935.5,-181 929.5,-187 923.5,-187"/>
<text text-anchor="start" x="778.5" y="-171.8" font-family="Helvetica,sans-Serif" font-size="14.00" fill="#000000">YearsAtCompany ≤ 2.5</text>
<text text-anchor="start" x="802" y="-156.8" font-family="Helvetica,sans-Serif" font-size="14.00" fill="#000000">entropy = 0.887</text>
<text text-anchor="start" x="805" y="-141.8" font-family="Helvetica,sans-Serif" font-size="14.00" fill="#000000">samples = 200</text>
<text text-anchor="start" x="799" y="-126.8" font-family="Helvetica,sans-Serif" font-size="14.00" fill="#000000">value = [139, 61]</text>
<text text-anchor="start" x="824" y="-111.8" font-family="Helvetica,sans-Serif" font-size="14.00" fill="#000000">class = 1</text>
</g>
<!-- 13&#45;&gt;14 -->
<g id="edge14" class="edge">
<title>13&#45;&gt;14</title>
<path fill="none" stroke="#000000" d="M921.2761,-222.8796C913.3293,-213.8733 904.851,-204.2644 896.6674,-194.9897"/>
<polygon fill="#000000" stroke="#000000" points="899.1213,-192.4808 889.8807,-187.2981 893.8725,-197.1122 899.1213,-192.4808"/>
</g>
<!-- 17 -->
<g id="node18" class="node">
<title>17</title>
<path fill="#e99559" stroke="#000000" d="M1160,-187C1160,-187 966,-187 966,-187 960,-187 954,-181 954,-175 954,-175 954,-116 954,-116 954,-110 960,-104 966,-104 966,-104 1160,-104 1160,-104 1166,-104 1172,-110 1172,-116 1172,-116 1172,-175 1172,-175 1172,-181 1166,-187 1160,-187"/>
<text text-anchor="start" x="962" y="-171.8" font-family="Helvetica,sans-Serif" font-size="14.00" fill="#000000">JobRole_Sales Executive ≤ 0.5</text>
<text text-anchor="start" x="1012" y="-156.8" font-family="Helvetica,sans-Serif" font-size="14.00" fill="#000000">entropy = 0.579</text>
<text text-anchor="start" x="1015" y="-141.8" font-family="Helvetica,sans-Serif" font-size="14.00" fill="#000000">samples = 312</text>
<text text-anchor="start" x="1009" y="-126.8" font-family="Helvetica,sans-Serif" font-size="14.00" fill="#000000">value = [269, 43]</text>
<text text-anchor="start" x="1034" y="-111.8" font-family="Helvetica,sans-Serif" font-size="14.00" fill="#000000">class = 1</text>
</g>
<!-- 13&#45;&gt;17 -->
<g id="edge17" class="edge">
<title>13&#45;&gt;17</title>
<path fill="none" stroke="#000000" d="M994.7239,-222.8796C1002.6707,-213.8733 1011.149,-204.2644 1019.3326,-194.9897"/>
<polygon fill="#000000" stroke="#000000" points="1022.1275,-197.1122 1026.1193,-187.2981 1016.8787,-192.4808 1022.1275,-197.1122"/>
</g>
<!-- 15 -->
<g id="node16" class="node">
<title>15</title>
<path fill="#dbedfa" stroke="#000000" d="M761,-68C761,-68 667,-68 667,-68 661,-68 655,-62 655,-56 655,-56 655,-12 655,-12 655,-6 661,0 667,0 667,0 761,0 761,0 767,0 773,-6 773,-12 773,-12 773,-56 773,-56 773,-62 767,-68 761,-68"/>
<text text-anchor="start" x="663" y="-52.8" font-family="Helvetica,sans-Serif" font-size="14.00" fill="#000000">entropy = 0.993</text>
<text text-anchor="start" x="670" y="-37.8" font-family="Helvetica,sans-Serif" font-size="14.00" fill="#000000">samples = 40</text>
<text text-anchor="start" x="664" y="-22.8" font-family="Helvetica,sans-Serif" font-size="14.00" fill="#000000">value = [18, 22]</text>
<text text-anchor="start" x="685" y="-7.8" font-family="Helvetica,sans-Serif" font-size="14.00" fill="#000000">class = 0</text>
</g>
<!-- 14&#45;&gt;15 -->
<g id="edge15" class="edge">
<title>14&#45;&gt;15</title>
<path fill="none" stroke="#000000" d="M801.2415,-103.9815C789.3258,-94.4232 776.6644,-84.2668 764.7903,-74.7419"/>
<polygon fill="#000000" stroke="#000000" points="766.7049,-71.7907 756.7144,-68.2637 762.3248,-77.2511 766.7049,-71.7907"/>
</g>
<!-- 16 -->
<g id="node17" class="node">
<title>16</title>
<path fill="#edaa79" stroke="#000000" d="M903,-68C903,-68 803,-68 803,-68 797,-68 791,-62 791,-56 791,-56 791,-12 791,-12 791,-6 797,0 803,0 803,0 903,0 903,0 909,0 915,-6 915,-12 915,-12 915,-56 915,-56 915,-62 909,-68 903,-68"/>
<text text-anchor="start" x="802" y="-52.8" font-family="Helvetica,sans-Serif" font-size="14.00" fill="#000000">entropy = 0.801</text>
<text text-anchor="start" x="805" y="-37.8" font-family="Helvetica,sans-Serif" font-size="14.00" fill="#000000">samples = 160</text>
<text text-anchor="start" x="799" y="-22.8" font-family="Helvetica,sans-Serif" font-size="14.00" fill="#000000">value = [121, 39]</text>
<text text-anchor="start" x="824" y="-7.8" font-family="Helvetica,sans-Serif" font-size="14.00" fill="#000000">class = 1</text>
</g>
<!-- 14&#45;&gt;16 -->
<g id="edge16" class="edge">
<title>14&#45;&gt;16</title>
<path fill="none" stroke="#000000" d="M853,-103.9815C853,-95.618 853,-86.7965 853,-78.3409"/>
<polygon fill="#000000" stroke="#000000" points="856.5001,-78.2636 853,-68.2637 849.5001,-78.2637 856.5001,-78.2636"/>
</g>
<!-- 18 -->
<g id="node19" class="node">
<title>18</title>
<path fill="#e88f4e" stroke="#000000" d="M1045,-68C1045,-68 945,-68 945,-68 939,-68 933,-62 933,-56 933,-56 933,-12 933,-12 933,-6 939,0 945,0 945,0 1045,0 1045,0 1051,0 1057,-6 1057,-12 1057,-12 1057,-56 1057,-56 1057,-62 1051,-68 1045,-68"/>
<text text-anchor="start" x="944" y="-52.8" font-family="Helvetica,sans-Serif" font-size="14.00" fill="#000000">entropy = 0.461</text>
<text text-anchor="start" x="947" y="-37.8" font-family="Helvetica,sans-Serif" font-size="14.00" fill="#000000">samples = 236</text>
<text text-anchor="start" x="941" y="-22.8" font-family="Helvetica,sans-Serif" font-size="14.00" fill="#000000">value = [213, 23]</text>
<text text-anchor="start" x="966" y="-7.8" font-family="Helvetica,sans-Serif" font-size="14.00" fill="#000000">class = 1</text>
</g>
<!-- 17&#45;&gt;18 -->
<g id="edge18" class="edge">
<title>17&#45;&gt;18</title>
<path fill="none" stroke="#000000" d="M1037.6793,-103.9815C1032.2984,-95.1585 1026.6068,-85.8258 1021.1941,-76.9506"/>
<polygon fill="#000000" stroke="#000000" points="1024.0912,-74.9789 1015.8962,-68.2637 1018.1149,-78.6236 1024.0912,-74.9789"/>
</g>
<!-- 19 -->
<g id="node20" class="node">
<title>19</title>
<path fill="#eeae80" stroke="#000000" d="M1181,-68C1181,-68 1087,-68 1087,-68 1081,-68 1075,-62 1075,-56 1075,-56 1075,-12 1075,-12 1075,-6 1081,0 1087,0 1087,0 1181,0 1181,0 1187,0 1193,-6 1193,-12 1193,-12 1193,-56 1193,-56 1193,-62 1187,-68 1181,-68"/>
<text text-anchor="start" x="1083" y="-52.8" font-family="Helvetica,sans-Serif" font-size="14.00" fill="#000000">entropy = 0.831</text>
<text text-anchor="start" x="1090" y="-37.8" font-family="Helvetica,sans-Serif" font-size="14.00" fill="#000000">samples = 76</text>
<text text-anchor="start" x="1084" y="-22.8" font-family="Helvetica,sans-Serif" font-size="14.00" fill="#000000">value = [56, 20]</text>
<text text-anchor="start" x="1105" y="-7.8" font-family="Helvetica,sans-Serif" font-size="14.00" fill="#000000">class = 1</text>
</g>
<!-- 17&#45;&gt;19 -->
<g id="edge19" class="edge">
<title>17&#45;&gt;19</title>
<path fill="none" stroke="#000000" d="M1089.4378,-103.9815C1095.056,-95.1585 1100.9988,-85.8258 1106.6503,-76.9506"/>
<polygon fill="#000000" stroke="#000000" points="1109.7629,-78.5787 1112.1819,-68.2637 1103.8584,-74.8188 1109.7629,-78.5787"/>
</g>
<!-- 21 -->
<g id="node22" class="node">
<title>21</title>
<path fill="#eda672" stroke="#000000" d="M1408,-187C1408,-187 1208,-187 1208,-187 1202,-187 1196,-181 1196,-175 1196,-175 1196,-116 1196,-116 1196,-110 1202,-104 1208,-104 1208,-104 1408,-104 1408,-104 1414,-104 1420,-110 1420,-116 1420,-116 1420,-175 1420,-175 1420,-181 1414,-187 1408,-187"/>
<text text-anchor="start" x="1204" y="-171.8" font-family="Helvetica,sans-Serif" font-size="14.00" fill="#000000">NumCompaniesWorked ≤ 0.944</text>
<text text-anchor="start" x="1257" y="-156.8" font-family="Helvetica,sans-Serif" font-size="14.00" fill="#000000">entropy = 0.769</text>
<text text-anchor="start" x="1264" y="-141.8" font-family="Helvetica,sans-Serif" font-size="14.00" fill="#000000">samples = 80</text>
<text text-anchor="start" x="1258" y="-126.8" font-family="Helvetica,sans-Serif" font-size="14.00" fill="#000000">value = [62, 18]</text>
<text text-anchor="start" x="1279" y="-111.8" font-family="Helvetica,sans-Serif" font-size="14.00" fill="#000000">class = 1</text>
</g>
<!-- 20&#45;&gt;21 -->
<g id="edge21" class="edge">
<title>20&#45;&gt;21</title>
<path fill="none" stroke="#000000" d="M1308,-222.8796C1308,-214.6838 1308,-205.9891 1308,-197.5013"/>
<polygon fill="#000000" stroke="#000000" points="1311.5001,-197.298 1308,-187.2981 1304.5001,-197.2981 1311.5001,-197.298"/>
</g>
<!-- 24 -->
<g id="node25" class="node">
<title>24</title>
<path fill="#e78b48" stroke="#000000" d="M1602.5,-187C1602.5,-187 1455.5,-187 1455.5,-187 1449.5,-187 1443.5,-181 1443.5,-175 1443.5,-175 1443.5,-116 1443.5,-116 1443.5,-110 1449.5,-104 1455.5,-104 1455.5,-104 1602.5,-104 1602.5,-104 1608.5,-104 1614.5,-110 1614.5,-116 1614.5,-116 1614.5,-175 1614.5,-175 1614.5,-181 1608.5,-187 1602.5,-187"/>
<text text-anchor="start" x="1451.5" y="-171.8" font-family="Helvetica,sans-Serif" font-size="14.00" fill="#000000">JobInvolvement ≤ 0.833</text>
<text text-anchor="start" x="1478" y="-156.8" font-family="Helvetica,sans-Serif" font-size="14.00" fill="#000000">entropy = 0.371</text>
<text text-anchor="start" x="1481" y="-141.8" font-family="Helvetica,sans-Serif" font-size="14.00" fill="#000000">samples = 645</text>
<text text-anchor="start" x="1475" y="-126.8" font-family="Helvetica,sans-Serif" font-size="14.00" fill="#000000">value = [599, 46]</text>
<text text-anchor="start" x="1500" y="-111.8" font-family="Helvetica,sans-Serif" font-size="14.00" fill="#000000">class = 1</text>
</g>
<!-- 20&#45;&gt;24 -->
<g id="edge24" class="edge">
<title>20&#45;&gt;24</title>
<path fill="none" stroke="#000000" d="M1385.2951,-222.8796C1403.8848,-212.8697 1423.8567,-202.1156 1442.8227,-191.9031"/>
<polygon fill="#000000" stroke="#000000" points="1444.6032,-194.9196 1451.7486,-187.0969 1441.2845,-188.7563 1444.6032,-194.9196"/>
</g>
<!-- 22 -->
<g id="node23" class="node">
<title>22</title>
<path fill="#eb9f69" stroke="#000000" d="M1317,-68C1317,-68 1223,-68 1223,-68 1217,-68 1211,-62 1211,-56 1211,-56 1211,-12 1211,-12 1211,-6 1217,0 1223,0 1223,0 1317,0 1317,0 1323,0 1329,-6 1329,-12 1329,-12 1329,-56 1329,-56 1329,-62 1323,-68 1317,-68"/>
<text text-anchor="start" x="1219" y="-52.8" font-family="Helvetica,sans-Serif" font-size="14.00" fill="#000000">entropy = 0.711</text>
<text text-anchor="start" x="1226" y="-37.8" font-family="Helvetica,sans-Serif" font-size="14.00" fill="#000000">samples = 77</text>
<text text-anchor="start" x="1220" y="-22.8" font-family="Helvetica,sans-Serif" font-size="14.00" fill="#000000">value = [62, 15]</text>
<text text-anchor="start" x="1241" y="-7.8" font-family="Helvetica,sans-Serif" font-size="14.00" fill="#000000">class = 1</text>
</g>
<!-- 21&#45;&gt;22 -->
<g id="edge22" class="edge">
<title>21&#45;&gt;22</title>
<path fill="none" stroke="#000000" d="M1293.8502,-103.9815C1290.9372,-95.4342 1287.8612,-86.4086 1284.9219,-77.7839"/>
<polygon fill="#000000" stroke="#000000" points="1288.2161,-76.6 1281.6773,-68.2637 1281.5904,-78.8582 1288.2161,-76.6"/>
</g>
<!-- 23 -->
<g id="node24" class="node">
<title>23</title>
<path fill="#399de5" stroke="#000000" d="M1436.5,-68C1436.5,-68 1359.5,-68 1359.5,-68 1353.5,-68 1347.5,-62 1347.5,-56 1347.5,-56 1347.5,-12 1347.5,-12 1347.5,-6 1353.5,0 1359.5,0 1359.5,0 1436.5,0 1436.5,0 1442.5,0 1448.5,-6 1448.5,-12 1448.5,-12 1448.5,-56 1448.5,-56 1448.5,-62 1442.5,-68 1436.5,-68"/>
<text text-anchor="start" x="1355.5" y="-52.8" font-family="Helvetica,sans-Serif" font-size="14.00" fill="#000000">entropy = 0.0</text>
<text text-anchor="start" x="1358.5" y="-37.8" font-family="Helvetica,sans-Serif" font-size="14.00" fill="#000000">samples = 3</text>
<text text-anchor="start" x="1356.5" y="-22.8" font-family="Helvetica,sans-Serif" font-size="14.00" fill="#000000">value = [0, 3]</text>
<text text-anchor="start" x="1369" y="-7.8" font-family="Helvetica,sans-Serif" font-size="14.00" fill="#000000">class = 0</text>
</g>
<!-- 21&#45;&gt;23 -->
<g id="edge23" class="edge">
<title>21&#45;&gt;23</title>
<path fill="none" stroke="#000000" d="M1341.5127,-103.9815C1348.857,-94.8828 1356.6388,-85.242 1364.0019,-76.1199"/>
<polygon fill="#000000" stroke="#000000" points="1366.7857,-78.2434 1370.3432,-68.2637 1361.3388,-73.8467 1366.7857,-78.2434"/>
</g>
<!-- 25 -->
<g id="node26" class="node">
<title>25</title>
<path fill="#e78c4a" stroke="#000000" d="M1579,-68C1579,-68 1479,-68 1479,-68 1473,-68 1467,-62 1467,-56 1467,-56 1467,-12 1467,-12 1467,-6 1473,0 1479,0 1479,0 1579,0 1579,0 1585,0 1591,-6 1591,-12 1591,-12 1591,-56 1591,-56 1591,-62 1585,-68 1579,-68"/>
<text text-anchor="start" x="1478" y="-52.8" font-family="Helvetica,sans-Serif" font-size="14.00" fill="#000000">entropy = 0.404</text>
<text text-anchor="start" x="1481" y="-37.8" font-family="Helvetica,sans-Serif" font-size="14.00" fill="#000000">samples = 572</text>
<text text-anchor="start" x="1475" y="-22.8" font-family="Helvetica,sans-Serif" font-size="14.00" fill="#000000">value = [526, 46]</text>
<text text-anchor="start" x="1500" y="-7.8" font-family="Helvetica,sans-Serif" font-size="14.00" fill="#000000">class = 1</text>
</g>
<!-- 24&#45;&gt;25 -->
<g id="edge25" class="edge">
<title>24&#45;&gt;25</title>
<path fill="none" stroke="#000000" d="M1529,-103.9815C1529,-95.618 1529,-86.7965 1529,-78.3409"/>
<polygon fill="#000000" stroke="#000000" points="1532.5001,-78.2636 1529,-68.2637 1525.5001,-78.2637 1532.5001,-78.2636"/>
</g>
<!-- 26 -->
<g id="node27" class="node">
<title>26</title>
<path fill="#e58139" stroke="#000000" d="M1704.5,-68C1704.5,-68 1621.5,-68 1621.5,-68 1615.5,-68 1609.5,-62 1609.5,-56 1609.5,-56 1609.5,-12 1609.5,-12 1609.5,-6 1615.5,0 1621.5,0 1621.5,0 1704.5,0 1704.5,0 1710.5,0 1716.5,-6 1716.5,-12 1716.5,-12 1716.5,-56 1716.5,-56 1716.5,-62 1710.5,-68 1704.5,-68"/>
<text text-anchor="start" x="1620.5" y="-52.8" font-family="Helvetica,sans-Serif" font-size="14.00" fill="#000000">entropy = 0.0</text>
<text text-anchor="start" x="1619" y="-37.8" font-family="Helvetica,sans-Serif" font-size="14.00" fill="#000000">samples = 73</text>
<text text-anchor="start" x="1617.5" y="-22.8" font-family="Helvetica,sans-Serif" font-size="14.00" fill="#000000">value = [73, 0]</text>
<text text-anchor="start" x="1634" y="-7.8" font-family="Helvetica,sans-Serif" font-size="14.00" fill="#000000">class = 1</text>
</g>
<!-- 24&#45;&gt;26 -->
<g id="edge26" class="edge">
<title>24&#45;&gt;26</title>
<path fill="none" stroke="#000000" d="M1578.8967,-103.9815C1590.3838,-94.4232 1602.5897,-84.2668 1614.0367,-74.7419"/>
<polygon fill="#000000" stroke="#000000" points="1616.3739,-77.3503 1621.8221,-68.2637 1611.8965,-71.9695 1616.3739,-77.3503"/>
</g>
</g>
</svg>
