<?xml version="1.0" encoding="UTF-8" standalone="no"?>
<!DOCTYPE svg PUBLIC "-//W3C//DTD SVG 1.1//EN"
 "http://www.w3.org/Graphics/SVG/1.1/DTD/svg11.dtd">
<!-- Generated by graphviz version 2.40.1 (20161225.0304)
 -->
<!-- Title: Tree Pages: 1 -->
<svg width="1646pt" height="552pt"
 viewBox="0.00 0.00 1645.50 552.00" xmlns="http://www.w3.org/2000/svg" xmlns:xlink="http://www.w3.org/1999/xlink">
<g id="graph0" class="graph" transform="scale(1 1) rotate(0) translate(4 548)">
<title>Tree</title>
<polygon fill="#ffffff" stroke="transparent" points="-4,4 -4,-548 1641.5,-548 1641.5,4 -4,4"/>
<!-- 0 -->
<g id="node1" class="node">
<title>0</title>
<path fill="#ea995f" stroke="#000000" d="M727.5,-544C727.5,-544 578.5,-544 578.5,-544 572.5,-544 566.5,-538 566.5,-532 566.5,-532 566.5,-473 566.5,-473 566.5,-467 572.5,-461 578.5,-461 578.5,-461 727.5,-461 727.5,-461 733.5,-461 739.5,-467 739.5,-473 739.5,-473 739.5,-532 739.5,-532 739.5,-538 733.5,-544 727.5,-544"/>
<text text-anchor="start" x="574.5" y="-528.8" font-family="Helvetica,sans-Serif" font-size="14.00" fill="#000000">TotalWorkingYears ≤ 1.5</text>
<text text-anchor="start" x="602" y="-513.8" font-family="Helvetica,sans-Serif" font-size="14.00" fill="#000000">entropy = 0.633</text>
<text text-anchor="start" x="601" y="-498.8" font-family="Helvetica,sans-Serif" font-size="14.00" fill="#000000">samples = 1323</text>
<text text-anchor="start" x="591" y="-483.8" font-family="Helvetica,sans-Serif" font-size="14.00" fill="#000000">value = [1112, 211]</text>
<text text-anchor="start" x="624" y="-468.8" font-family="Helvetica,sans-Serif" font-size="14.00" fill="#000000">class = 1</text>
</g>
<!-- 1 -->
<g id="node2" class="node">
<title>1</title>
<path fill="#ffffff" stroke="#000000" d="M643.5,-425C643.5,-425 390.5,-425 390.5,-425 384.5,-425 378.5,-419 378.5,-413 378.5,-413 378.5,-354 378.5,-354 378.5,-348 384.5,-342 390.5,-342 390.5,-342 643.5,-342 643.5,-342 649.5,-342 655.5,-348 655.5,-354 655.5,-354 655.5,-413 655.5,-413 655.5,-419 649.5,-425 643.5,-425"/>
<text text-anchor="start" x="386.5" y="-409.8" font-family="Helvetica,sans-Serif" font-size="14.00" fill="#000000">BusinessTravel_Travel_Frequently ≤ 0.5</text>
<text text-anchor="start" x="474.5" y="-394.8" font-family="Helvetica,sans-Serif" font-size="14.00" fill="#000000">entropy = 1.0</text>
<text text-anchor="start" x="473" y="-379.8" font-family="Helvetica,sans-Serif" font-size="14.00" fill="#000000">samples = 86</text>
<text text-anchor="start" x="467" y="-364.8" font-family="Helvetica,sans-Serif" font-size="14.00" fill="#000000">value = [43, 43]</text>
<text text-anchor="start" x="488" y="-349.8" font-family="Helvetica,sans-Serif" font-size="14.00" fill="#000000">class = 1</text>
</g>
<!-- 0&#45;&gt;1 -->
<g id="edge1" class="edge">
<title>0&#45;&gt;1</title>
<path fill="none" stroke="#000000" d="M605.4338,-460.8796C594.8321,-451.6031 583.4998,-441.6874 572.6067,-432.1559"/>
<polygon fill="#000000" stroke="#000000" points="574.5998,-429.2491 564.7692,-425.2981 569.9902,-434.5172 574.5998,-429.2491"/>
<text text-anchor="middle" x="566.4322" y="-446.5427" font-family="Helvetica,sans-Serif" font-size="14.00" fill="#000000">True</text>
</g>
<!-- 12 -->
<g id="node13" class="node">
<title>12</title>
<path fill="#e99558" stroke="#000000" d="M950.5,-425C950.5,-425 807.5,-425 807.5,-425 801.5,-425 795.5,-419 795.5,-413 795.5,-413 795.5,-354 795.5,-354 795.5,-348 801.5,-342 807.5,-342 807.5,-342 950.5,-342 950.5,-342 956.5,-342 962.5,-348 962.5,-354 962.5,-354 962.5,-413 962.5,-413 962.5,-419 956.5,-425 950.5,-425"/>
<text text-anchor="start" x="803.5" y="-409.8" font-family="Helvetica,sans-Serif" font-size="14.00" fill="#000000">StockOptionLevel ≤ 0.5</text>
<text text-anchor="start" x="828" y="-394.8" font-family="Helvetica,sans-Serif" font-size="14.00" fill="#000000">entropy = 0.573</text>
<text text-anchor="start" x="827" y="-379.8" font-family="Helvetica,sans-Serif" font-size="14.00" fill="#000000">samples = 1237</text>
<text text-anchor="start" x="817" y="-364.8" font-family="Helvetica,sans-Serif" font-size="14.00" fill="#000000">value = [1069, 168]</text>
<text text-anchor="start" x="850" y="-349.8" font-family="Helvetica,sans-Serif" font-size="14.00" fill="#000000">class = 1</text>
</g>
<!-- 0&#45;&gt;12 -->
<g id="edge12" class="edge">
<title>0&#45;&gt;12</title>
<path fill="none" stroke="#000000" d="M732.0438,-460.8796C751.1401,-450.8244 771.6627,-440.0183 791.1362,-429.7645"/>
<polygon fill="#000000" stroke="#000000" points="792.7831,-432.853 800.0008,-425.0969 789.5218,-426.6591 792.7831,-432.853"/>
<text text-anchor="middle" x="792.5952" y="-445.2749" font-family="Helvetica,sans-Serif" font-size="14.00" fill="#000000">False</text>
</g>
<!-- 2 -->
<g id="node3" class="node">
<title>2</title>
<path fill="#f8decb" stroke="#000000" d="M391.5,-306C391.5,-306 282.5,-306 282.5,-306 276.5,-306 270.5,-300 270.5,-294 270.5,-294 270.5,-235 270.5,-235 270.5,-229 276.5,-223 282.5,-223 282.5,-223 391.5,-223 391.5,-223 397.5,-223 403.5,-229 403.5,-235 403.5,-235 403.5,-294 403.5,-294 403.5,-300 397.5,-306 391.5,-306"/>
<text text-anchor="start" x="278.5" y="-290.8" font-family="Helvetica,sans-Serif" font-size="14.00" fill="#000000">HourlyRate ≤ 55.5</text>
<text text-anchor="start" x="286" y="-275.8" font-family="Helvetica,sans-Serif" font-size="14.00" fill="#000000">entropy = 0.984</text>
<text text-anchor="start" x="293" y="-260.8" font-family="Helvetica,sans-Serif" font-size="14.00" fill="#000000">samples = 73</text>
<text text-anchor="start" x="287" y="-245.8" font-family="Helvetica,sans-Serif" font-size="14.00" fill="#000000">value = [42, 31]</text>
<text text-anchor="start" x="308" y="-230.8" font-family="Helvetica,sans-Serif" font-size="14.00" fill="#000000">class = 1</text>
</g>
<!-- 1&#45;&gt;2 -->
<g id="edge2" class="edge">
<title>1&#45;&gt;2</title>
<path fill="none" stroke="#000000" d="M454.0447,-341.8796C439.3834,-332.1868 423.6664,-321.7961 408.6599,-311.8752"/>
<polygon fill="#000000" stroke="#000000" points="410.1918,-308.6922 399.9197,-306.0969 406.3313,-314.5315 410.1918,-308.6922"/>
</g>
<!-- 9 -->
<g id="node10" class="node">
<title>9</title>
<path fill="#49a5e7" stroke="#000000" d="M575,-306C575,-306 459,-306 459,-306 453,-306 447,-300 447,-294 447,-294 447,-235 447,-235 447,-229 453,-223 459,-223 459,-223 575,-223 575,-223 581,-223 587,-229 587,-235 587,-235 587,-294 587,-294 587,-300 581,-306 575,-306"/>
<text text-anchor="start" x="455" y="-290.8" font-family="Helvetica,sans-Serif" font-size="14.00" fill="#000000">DailyRate ≤ 1413.5</text>
<text text-anchor="start" x="466" y="-275.8" font-family="Helvetica,sans-Serif" font-size="14.00" fill="#000000">entropy = 0.391</text>
<text text-anchor="start" x="473" y="-260.8" font-family="Helvetica,sans-Serif" font-size="14.00" fill="#000000">samples = 13</text>
<text text-anchor="start" x="471.5" y="-245.8" font-family="Helvetica,sans-Serif" font-size="14.00" fill="#000000">value = [1, 12]</text>
<text text-anchor="start" x="488" y="-230.8" font-family="Helvetica,sans-Serif" font-size="14.00" fill="#000000">class = 0</text>
</g>
<!-- 1&#45;&gt;9 -->
<g id="edge9" class="edge">
<title>1&#45;&gt;9</title>
<path fill="none" stroke="#000000" d="M517,-341.8796C517,-333.6838 517,-324.9891 517,-316.5013"/>
<polygon fill="#000000" stroke="#000000" points="520.5001,-316.298 517,-306.2981 513.5001,-316.2981 520.5001,-316.298"/>
</g>
<!-- 3 -->
<g id="node4" class="node">
<title>3</title>
<path fill="#88c4ef" stroke="#000000" d="M214,-187C214,-187 120,-187 120,-187 114,-187 108,-181 108,-175 108,-175 108,-116 108,-116 108,-110 114,-104 120,-104 120,-104 214,-104 214,-104 220,-104 226,-110 226,-116 226,-116 226,-175 226,-175 226,-181 220,-187 214,-187"/>
<text text-anchor="start" x="132" y="-171.8" font-family="Helvetica,sans-Serif" font-size="14.00" fill="#000000">Age ≤ 33.5</text>
<text text-anchor="start" x="116" y="-156.8" font-family="Helvetica,sans-Serif" font-size="14.00" fill="#000000">entropy = 0.863</text>
<text text-anchor="start" x="123" y="-141.8" font-family="Helvetica,sans-Serif" font-size="14.00" fill="#000000">samples = 21</text>
<text text-anchor="start" x="121.5" y="-126.8" font-family="Helvetica,sans-Serif" font-size="14.00" fill="#000000">value = [6, 15]</text>
<text text-anchor="start" x="138" y="-111.8" font-family="Helvetica,sans-Serif" font-size="14.00" fill="#000000">class = 0</text>
</g>
<!-- 2&#45;&gt;3 -->
<g id="edge3" class="edge">
<title>2&#45;&gt;3</title>
<path fill="none" stroke="#000000" d="M277.5422,-222.8796C263.6154,-213.1308 248.68,-202.676 234.4331,-192.7032"/>
<polygon fill="#000000" stroke="#000000" points="236.3366,-189.7633 226.1371,-186.896 232.3223,-195.498 236.3366,-189.7633"/>
</g>
<!-- 6 -->
<g id="node7" class="node">
<title>6</title>
<path fill="#f1b991" stroke="#000000" d="M417.5,-187C417.5,-187 256.5,-187 256.5,-187 250.5,-187 244.5,-181 244.5,-175 244.5,-175 244.5,-116 244.5,-116 244.5,-110 250.5,-104 256.5,-104 256.5,-104 417.5,-104 417.5,-104 423.5,-104 429.5,-110 429.5,-116 429.5,-116 429.5,-175 429.5,-175 429.5,-181 423.5,-187 417.5,-187"/>
<text text-anchor="start" x="252.5" y="-171.8" font-family="Helvetica,sans-Serif" font-size="14.00" fill="#000000">EmployeeNumber ≤ 452.5</text>
<text text-anchor="start" x="290" y="-156.8" font-family="Helvetica,sans-Serif" font-size="14.00" fill="#000000">entropy = 0.89</text>
<text text-anchor="start" x="293" y="-141.8" font-family="Helvetica,sans-Serif" font-size="14.00" fill="#000000">samples = 52</text>
<text text-anchor="start" x="287" y="-126.8" font-family="Helvetica,sans-Serif" font-size="14.00" fill="#000000">value = [36, 16]</text>
<text text-anchor="start" x="308" y="-111.8" font-family="Helvetica,sans-Serif" font-size="14.00" fill="#000000">class = 1</text>
</g>
<!-- 2&#45;&gt;6 -->
<g id="edge6" class="edge">
<title>2&#45;&gt;6</title>
<path fill="none" stroke="#000000" d="M337,-222.8796C337,-214.6838 337,-205.9891 337,-197.5013"/>
<polygon fill="#000000" stroke="#000000" points="340.5001,-197.298 337,-187.2981 333.5001,-197.2981 340.5001,-197.298"/>
</g>
<!-- 4 -->
<g id="node5" class="node">
<title>4</title>
<path fill="#61b1ea" stroke="#000000" d="M98,-68C98,-68 12,-68 12,-68 6,-68 0,-62 0,-56 0,-56 0,-12 0,-12 0,-6 6,0 12,0 12,0 98,0 98,0 104,0 110,-6 110,-12 110,-12 110,-56 110,-56 110,-62 104,-68 98,-68"/>
<text text-anchor="start" x="8" y="-52.8" font-family="Helvetica,sans-Serif" font-size="14.00" fill="#000000">entropy = 0.65</text>
<text text-anchor="start" x="11" y="-37.8" font-family="Helvetica,sans-Serif" font-size="14.00" fill="#000000">samples = 18</text>
<text text-anchor="start" x="9.5" y="-22.8" font-family="Helvetica,sans-Serif" font-size="14.00" fill="#000000">value = [3, 15]</text>
<text text-anchor="start" x="26" y="-7.8" font-family="Helvetica,sans-Serif" font-size="14.00" fill="#000000">class = 0</text>
</g>
<!-- 3&#45;&gt;4 -->
<g id="edge4" class="edge">
<title>3&#45;&gt;4</title>
<path fill="none" stroke="#000000" d="M125.2953,-103.9815C115.9711,-94.6989 106.0803,-84.8522 96.7541,-75.5677"/>
<polygon fill="#000000" stroke="#000000" points="98.9736,-72.8385 89.4173,-68.2637 94.0349,-77.7993 98.9736,-72.8385"/>
</g>
<!-- 5 -->
<g id="node6" class="node">
<title>5</title>
<path fill="#e58139" stroke="#000000" d="M217.5,-68C217.5,-68 140.5,-68 140.5,-68 134.5,-68 128.5,-62 128.5,-56 128.5,-56 128.5,-12 128.5,-12 128.5,-6 134.5,0 140.5,0 140.5,0 217.5,0 217.5,0 223.5,0 229.5,-6 229.5,-12 229.5,-12 229.5,-56 229.5,-56 229.5,-62 223.5,-68 217.5,-68"/>
<text text-anchor="start" x="136.5" y="-52.8" font-family="Helvetica,sans-Serif" font-size="14.00" fill="#000000">entropy = 0.0</text>
<text text-anchor="start" x="139.5" y="-37.8" font-family="Helvetica,sans-Serif" font-size="14.00" fill="#000000">samples = 3</text>
<text text-anchor="start" x="137.5" y="-22.8" font-family="Helvetica,sans-Serif" font-size="14.00" fill="#000000">value = [3, 0]</text>
<text text-anchor="start" x="150" y="-7.8" font-family="Helvetica,sans-Serif" font-size="14.00" fill="#000000">class = 1</text>
</g>
<!-- 3&#45;&gt;5 -->
<g id="edge5" class="edge">
<title>3&#45;&gt;5</title>
<path fill="none" stroke="#000000" d="M171.4684,-103.9815C172.3685,-95.618 173.3179,-86.7965 174.2279,-78.3409"/>
<polygon fill="#000000" stroke="#000000" points="177.7222,-78.5808 175.3124,-68.2637 170.7624,-77.8317 177.7222,-78.5808"/>
</g>
<!-- 7 -->
<g id="node8" class="node">
<title>7</title>
<path fill="#e58139" stroke="#000000" d="M366.5,-68C366.5,-68 283.5,-68 283.5,-68 277.5,-68 271.5,-62 271.5,-56 271.5,-56 271.5,-12 271.5,-12 271.5,-6 277.5,0 283.5,0 283.5,0 366.5,0 366.5,0 372.5,0 378.5,-6 378.5,-12 378.5,-12 378.5,-56 378.5,-56 378.5,-62 372.5,-68 366.5,-68"/>
<text text-anchor="start" x="282.5" y="-52.8" font-family="Helvetica,sans-Serif" font-size="14.00" fill="#000000">entropy = 0.0</text>
<text text-anchor="start" x="281" y="-37.8" font-family="Helvetica,sans-Serif" font-size="14.00" fill="#000000">samples = 11</text>
<text text-anchor="start" x="279.5" y="-22.8" font-family="Helvetica,sans-Serif" font-size="14.00" fill="#000000">value = [11, 0]</text>
<text text-anchor="start" x="296" y="-7.8" font-family="Helvetica,sans-Serif" font-size="14.00" fill="#000000">class = 1</text>
</g>
<!-- 6&#45;&gt;7 -->
<g id="edge7" class="edge">
<title>6&#45;&gt;7</title>
<path fill="none" stroke="#000000" d="M332.5316,-103.9815C331.6315,-95.618 330.6821,-86.7965 329.7721,-78.3409"/>
<polygon fill="#000000" stroke="#000000" points="333.2376,-77.8317 328.6876,-68.2637 326.2778,-78.5808 333.2376,-77.8317"/>
</g>
<!-- 8 -->
<g id="node9" class="node">
<title>8</title>
<path fill="#f6d2b8" stroke="#000000" d="M503,-68C503,-68 409,-68 409,-68 403,-68 397,-62 397,-56 397,-56 397,-12 397,-12 397,-6 403,0 409,0 409,0 503,0 503,0 509,0 515,-6 515,-12 515,-12 515,-56 515,-56 515,-62 509,-68 503,-68"/>
<text text-anchor="start" x="405" y="-52.8" font-family="Helvetica,sans-Serif" font-size="14.00" fill="#000000">entropy = 0.965</text>
<text text-anchor="start" x="412" y="-37.8" font-family="Helvetica,sans-Serif" font-size="14.00" fill="#000000">samples = 41</text>
<text text-anchor="start" x="406" y="-22.8" font-family="Helvetica,sans-Serif" font-size="14.00" fill="#000000">value = [25, 16]</text>
<text text-anchor="start" x="427" y="-7.8" font-family="Helvetica,sans-Serif" font-size="14.00" fill="#000000">class = 1</text>
</g>
<!-- 6&#45;&gt;8 -->
<g id="edge8" class="edge">
<title>6&#45;&gt;8</title>
<path fill="none" stroke="#000000" d="M381.3112,-103.9815C391.3163,-94.607 401.9354,-84.6572 411.9304,-75.2921"/>
<polygon fill="#000000" stroke="#000000" points="414.5274,-77.6551 419.4316,-68.2637 409.7412,-72.547 414.5274,-77.6551"/>
</g>
<!-- 10 -->
<g id="node11" class="node">
<title>10</title>
<path fill="#399de5" stroke="#000000" d="M542.5,-179.5C542.5,-179.5 459.5,-179.5 459.5,-179.5 453.5,-179.5 447.5,-173.5 447.5,-167.5 447.5,-167.5 447.5,-123.5 447.5,-123.5 447.5,-117.5 453.5,-111.5 459.5,-111.5 459.5,-111.5 542.5,-111.5 542.5,-111.5 548.5,-111.5 554.5,-117.5 554.5,-123.5 554.5,-123.5 554.5,-167.5 554.5,-167.5 554.5,-173.5 548.5,-179.5 542.5,-179.5"/>
<text text-anchor="start" x="458.5" y="-164.3" font-family="Helvetica,sans-Serif" font-size="14.00" fill="#000000">entropy = 0.0</text>
<text text-anchor="start" x="457" y="-149.3" font-family="Helvetica,sans-Serif" font-size="14.00" fill="#000000">samples = 12</text>
<text text-anchor="start" x="455.5" y="-134.3" font-family="Helvetica,sans-Serif" font-size="14.00" fill="#000000">value = [0, 12]</text>
<text text-anchor="start" x="472" y="-119.3" font-family="Helvetica,sans-Serif" font-size="14.00" fill="#000000">class = 0</text>
</g>
<!-- 9&#45;&gt;10 -->
<g id="edge10" class="edge">
<title>9&#45;&gt;10</title>
<path fill="none" stroke="#000000" d="M511.404,-222.8796C509.9699,-212.2134 508.4221,-200.7021 506.97,-189.9015"/>
<polygon fill="#000000" stroke="#000000" points="510.4152,-189.2593 505.6138,-179.8149 503.4776,-190.1922 510.4152,-189.2593"/>
</g>
<!-- 11 -->
<g id="node12" class="node">
<title>11</title>
<path fill="#e58139" stroke="#000000" d="M661.5,-179.5C661.5,-179.5 584.5,-179.5 584.5,-179.5 578.5,-179.5 572.5,-173.5 572.5,-167.5 572.5,-167.5 572.5,-123.5 572.5,-123.5 572.5,-117.5 578.5,-111.5 584.5,-111.5 584.5,-111.5 661.5,-111.5 661.5,-111.5 667.5,-111.5 673.5,-117.5 673.5,-123.5 673.5,-123.5 673.5,-167.5 673.5,-167.5 673.5,-173.5 667.5,-179.5 661.5,-179.5"/>
<text text-anchor="start" x="580.5" y="-164.3" font-family="Helvetica,sans-Serif" font-size="14.00" fill="#000000">entropy = 0.0</text>
<text text-anchor="start" x="583.5" y="-149.3" font-family="Helvetica,sans-Serif" font-size="14.00" fill="#000000">samples = 1</text>
<text text-anchor="start" x="581.5" y="-134.3" font-family="Helvetica,sans-Serif" font-size="14.00" fill="#000000">value = [1, 0]</text>
<text text-anchor="start" x="594" y="-119.3" font-family="Helvetica,sans-Serif" font-size="14.00" fill="#000000">class = 1</text>
</g>
<!-- 9&#45;&gt;11 -->
<g id="edge11" class="edge">
<title>9&#45;&gt;11</title>
<path fill="none" stroke="#000000" d="M554.0737,-222.8796C564.2603,-211.4436 575.3122,-199.0363 585.5215,-187.575"/>
<polygon fill="#000000" stroke="#000000" points="588.3958,-189.6101 592.4338,-179.8149 583.1688,-184.9541 588.3958,-189.6101"/>
</g>
<!-- 13 -->
<g id="node14" class="node">
<title>13</title>
<path fill="#eca16b" stroke="#000000" d="M933,-306C933,-306 825,-306 825,-306 819,-306 813,-300 813,-294 813,-294 813,-235 813,-235 813,-229 819,-223 825,-223 825,-223 933,-223 933,-223 939,-223 945,-229 945,-235 945,-235 945,-294 945,-294 945,-300 939,-306 933,-306"/>
<text text-anchor="start" x="844" y="-290.8" font-family="Helvetica,sans-Serif" font-size="14.00" fill="#000000">Age ≤ 33.5</text>
<text text-anchor="start" x="828" y="-275.8" font-family="Helvetica,sans-Serif" font-size="14.00" fill="#000000">entropy = 0.728</text>
<text text-anchor="start" x="831" y="-260.8" font-family="Helvetica,sans-Serif" font-size="14.00" fill="#000000">samples = 512</text>
<text text-anchor="start" x="821" y="-245.8" font-family="Helvetica,sans-Serif" font-size="14.00" fill="#000000">value = [408, 104]</text>
<text text-anchor="start" x="850" y="-230.8" font-family="Helvetica,sans-Serif" font-size="14.00" fill="#000000">class = 1</text>
</g>
<!-- 12&#45;&gt;13 -->
<g id="edge13" class="edge">
<title>12&#45;&gt;13</title>
<path fill="none" stroke="#000000" d="M879,-341.8796C879,-333.6838 879,-324.9891 879,-316.5013"/>
<polygon fill="#000000" stroke="#000000" points="882.5001,-316.298 879,-306.2981 875.5001,-316.2981 882.5001,-316.298"/>
</g>
<!-- 20 -->
<g id="node21" class="node">
<title>20</title>
<path fill="#e88d4c" stroke="#000000" d="M1306.5,-306C1306.5,-306 1163.5,-306 1163.5,-306 1157.5,-306 1151.5,-300 1151.5,-294 1151.5,-294 1151.5,-235 1151.5,-235 1151.5,-229 1157.5,-223 1163.5,-223 1163.5,-223 1306.5,-223 1306.5,-223 1312.5,-223 1318.5,-229 1318.5,-235 1318.5,-235 1318.5,-294 1318.5,-294 1318.5,-300 1312.5,-306 1306.5,-306"/>
<text text-anchor="start" x="1159.5" y="-290.8" font-family="Helvetica,sans-Serif" font-size="14.00" fill="#000000">MonthlyIncome ≤ 0.077</text>
<text text-anchor="start" x="1184" y="-275.8" font-family="Helvetica,sans-Serif" font-size="14.00" fill="#000000">entropy = 0.431</text>
<text text-anchor="start" x="1187" y="-260.8" font-family="Helvetica,sans-Serif" font-size="14.00" fill="#000000">samples = 725</text>
<text text-anchor="start" x="1181" y="-245.8" font-family="Helvetica,sans-Serif" font-size="14.00" fill="#000000">value = [661, 64]</text>
<text text-anchor="start" x="1206" y="-230.8" font-family="Helvetica,sans-Serif" font-size="14.00" fill="#000000">class = 1</text>
</g>
<!-- 12&#45;&gt;20 -->
<g id="edge20" class="edge">
<title>12&#45;&gt;20</title>
<path fill="none" stroke="#000000" d="M962.9162,-355.4493C1016.5355,-337.526 1086.1387,-314.2598 1141.5234,-295.7464"/>
<polygon fill="#000000" stroke="#000000" points="1142.9647,-298.9551 1151.3392,-292.4653 1140.7454,-292.3161 1142.9647,-298.9551"/>
</g>
<!-- 14 -->
<g id="node15" class="node">
<title>14</title>
<path fill="#f0b890" stroke="#000000" d="M844.5,-187C844.5,-187 703.5,-187 703.5,-187 697.5,-187 691.5,-181 691.5,-175 691.5,-175 691.5,-116 691.5,-116 691.5,-110 697.5,-104 703.5,-104 703.5,-104 844.5,-104 844.5,-104 850.5,-104 856.5,-110 856.5,-116 856.5,-116 856.5,-175 856.5,-175 856.5,-181 850.5,-187 844.5,-187"/>
<text text-anchor="start" x="699.5" y="-171.8" font-family="Helvetica,sans-Serif" font-size="14.00" fill="#000000">YearsAtCompany ≤ 2.5</text>
<text text-anchor="start" x="723" y="-156.8" font-family="Helvetica,sans-Serif" font-size="14.00" fill="#000000">entropy = 0.887</text>
<text text-anchor="start" x="726" y="-141.8" font-family="Helvetica,sans-Serif" font-size="14.00" fill="#000000">samples = 200</text>
<text text-anchor="start" x="720" y="-126.8" font-family="Helvetica,sans-Serif" font-size="14.00" fill="#000000">value = [139, 61]</text>
<text text-anchor="start" x="745" y="-111.8" font-family="Helvetica,sans-Serif" font-size="14.00" fill="#000000">class = 1</text>
</g>
<!-- 13&#45;&gt;14 -->
<g id="edge14" class="edge">
<title>13&#45;&gt;14</title>
<path fill="none" stroke="#000000" d="M842.2761,-222.8796C834.3293,-213.8733 825.851,-204.2644 817.6674,-194.9897"/>
<polygon fill="#000000" stroke="#000000" points="820.1213,-192.4808 810.8807,-187.2981 814.8725,-197.1122 820.1213,-192.4808"/>
</g>
<!-- 17 -->
<g id="node18" class="node">
<title>17</title>
<path fill="#e99559" stroke="#000000" d="M1081,-187C1081,-187 887,-187 887,-187 881,-187 875,-181 875,-175 875,-175 875,-116 875,-116 875,-110 881,-104 887,-104 887,-104 1081,-104 1081,-104 1087,-104 1093,-110 1093,-116 1093,-116 1093,-175 1093,-175 1093,-181 1087,-187 1081,-187"/>
<text text-anchor="start" x="883" y="-171.8" font-family="Helvetica,sans-Serif" font-size="14.00" fill="#000000">JobRole_Sales Executive ≤ 0.5</text>
<text text-anchor="start" x="933" y="-156.8" font-family="Helvetica,sans-Serif" font-size="14.00" fill="#000000">entropy = 0.579</text>
<text text-anchor="start" x="936" y="-141.8" font-family="Helvetica,sans-Serif" font-size="14.00" fill="#000000">samples = 312</text>
<text text-anchor="start" x="930" y="-126.8" font-family="Helvetica,sans-Serif" font-size="14.00" fill="#000000">value = [269, 43]</text>
<text text-anchor="start" x="955" y="-111.8" font-family="Helvetica,sans-Serif" font-size="14.00" fill="#000000">class = 1</text>
</g>
<!-- 13&#45;&gt;17 -->
<g id="edge17" class="edge">
<title>13&#45;&gt;17</title>
<path fill="none" stroke="#000000" d="M915.7239,-222.8796C923.6707,-213.8733 932.149,-204.2644 940.3326,-194.9897"/>
<polygon fill="#000000" stroke="#000000" points="943.1275,-197.1122 947.1193,-187.2981 937.8787,-192.4808 943.1275,-197.1122"/>
</g>
<!-- 15 -->
<g id="node16" class="node">
<title>15</title>
<path fill="#dbedfa" stroke="#000000" d="M682,-68C682,-68 588,-68 588,-68 582,-68 576,-62 576,-56 576,-56 576,-12 576,-12 576,-6 582,0 588,0 588,0 682,0 682,0 688,0 694,-6 694,-12 694,-12 694,-56 694,-56 694,-62 688,-68 682,-68"/>
<text text-anchor="start" x="584" y="-52.8" font-family="Helvetica,sans-Serif" font-size="14.00" fill="#000000">entropy = 0.993</text>
<text text-anchor="start" x="591" y="-37.8" font-family="Helvetica,sans-Serif" font-size="14.00" fill="#000000">samples = 40</text>
<text text-anchor="start" x="585" y="-22.8" font-family="Helvetica,sans-Serif" font-size="14.00" fill="#000000">value = [18, 22]</text>
<text text-anchor="start" x="606" y="-7.8" font-family="Helvetica,sans-Serif" font-size="14.00" fill="#000000">class = 0</text>
</g>
<!-- 14&#45;&gt;15 -->
<g id="edge15" class="edge">
<title>14&#45;&gt;15</title>
<path fill="none" stroke="#000000" d="M722.2415,-103.9815C710.3258,-94.4232 697.6644,-84.2668 685.7903,-74.7419"/>
<polygon fill="#000000" stroke="#000000" points="687.7049,-71.7907 677.7144,-68.2637 683.3248,-77.2511 687.7049,-71.7907"/>
</g>
<!-- 16 -->
<g id="node17" class="node">
<title>16</title>
<path fill="#edaa79" stroke="#000000" d="M824,-68C824,-68 724,-68 724,-68 718,-68 712,-62 712,-56 712,-56 712,-12 712,-12 712,-6 718,0 724,0 724,0 824,0 824,0 830,0 836,-6 836,-12 836,-12 836,-56 836,-56 836,-62 830,-68 824,-68"/>
<text text-anchor="start" x="723" y="-52.8" font-family="Helvetica,sans-Serif" font-size="14.00" fill="#000000">entropy = 0.801</text>
<text text-anchor="start" x="726" y="-37.8" font-family="Helvetica,sans-Serif" font-size="14.00" fill="#000000">samples = 160</text>
<text text-anchor="start" x="720" y="-22.8" font-family="Helvetica,sans-Serif" font-size="14.00" fill="#000000">value = [121, 39]</text>
<text text-anchor="start" x="745" y="-7.8" font-family="Helvetica,sans-Serif" font-size="14.00" fill="#000000">class = 1</text>
</g>
<!-- 14&#45;&gt;16 -->
<g id="edge16" class="edge">
<title>14&#45;&gt;16</title>
<path fill="none" stroke="#000000" d="M774,-103.9815C774,-95.618 774,-86.7965 774,-78.3409"/>
<polygon fill="#000000" stroke="#000000" points="777.5001,-78.2636 774,-68.2637 770.5001,-78.2637 777.5001,-78.2636"/>
</g>
<!-- 18 -->
<g id="node19" class="node">
<title>18</title>
<path fill="#e88f4e" stroke="#000000" d="M966,-68C966,-68 866,-68 866,-68 860,-68 854,-62 854,-56 854,-56 854,-12 854,-12 854,-6 860,0 866,0 866,0 966,0 966,0 972,0 978,-6 978,-12 978,-12 978,-56 978,-56 978,-62 972,-68 966,-68"/>
<text text-anchor="start" x="865" y="-52.8" font-family="Helvetica,sans-Serif" font-size="14.00" fill="#000000">entropy = 0.461</text>
<text text-anchor="start" x="868" y="-37.8" font-family="Helvetica,sans-Serif" font-size="14.00" fill="#000000">samples = 236</text>
<text text-anchor="start" x="862" y="-22.8" font-family="Helvetica,sans-Serif" font-size="14.00" fill="#000000">value = [213, 23]</text>
<text text-anchor="start" x="887" y="-7.8" font-family="Helvetica,sans-Serif" font-size="14.00" fill="#000000">class = 1</text>
</g>
<!-- 17&#45;&gt;18 -->
<g id="edge18" class="edge">
<title>17&#45;&gt;18</title>
<path fill="none" stroke="#000000" d="M958.6793,-103.9815C953.2984,-95.1585 947.6068,-85.8258 942.1941,-76.9506"/>
<polygon fill="#000000" stroke="#000000" points="945.0912,-74.9789 936.8962,-68.2637 939.1149,-78.6236 945.0912,-74.9789"/>
</g>
<!-- 19 -->
<g id="node20" class="node">
<title>19</title>
<path fill="#eeae80" stroke="#000000" d="M1102,-68C1102,-68 1008,-68 1008,-68 1002,-68 996,-62 996,-56 996,-56 996,-12 996,-12 996,-6 1002,0 1008,0 1008,0 1102,0 1102,0 1108,0 1114,-6 1114,-12 1114,-12 1114,-56 1114,-56 1114,-62 1108,-68 1102,-68"/>
<text text-anchor="start" x="1004" y="-52.8" font-family="Helvetica,sans-Serif" font-size="14.00" fill="#000000">entropy = 0.831</text>
<text text-anchor="start" x="1011" y="-37.8" font-family="Helvetica,sans-Serif" font-size="14.00" fill="#000000">samples = 76</text>
<text text-anchor="start" x="1005" y="-22.8" font-family="Helvetica,sans-Serif" font-size="14.00" fill="#000000">value = [56, 20]</text>
<text text-anchor="start" x="1026" y="-7.8" font-family="Helvetica,sans-Serif" font-size="14.00" fill="#000000">class = 1</text>
</g>
<!-- 17&#45;&gt;19 -->
<g id="edge19" class="edge">
<title>17&#45;&gt;19</title>
<path fill="none" stroke="#000000" d="M1010.4378,-103.9815C1016.056,-95.1585 1021.9988,-85.8258 1027.6503,-76.9506"/>
<polygon fill="#000000" stroke="#000000" points="1030.7629,-78.5787 1033.1819,-68.2637 1024.8584,-74.8188 1030.7629,-78.5787"/>
</g>
<!-- 21 -->
<g id="node22" class="node">
<title>21</title>
<path fill="#eda672" stroke="#000000" d="M1289.5,-187C1289.5,-187 1180.5,-187 1180.5,-187 1174.5,-187 1168.5,-181 1168.5,-175 1168.5,-175 1168.5,-116 1168.5,-116 1168.5,-110 1174.5,-104 1180.5,-104 1180.5,-104 1289.5,-104 1289.5,-104 1295.5,-104 1301.5,-110 1301.5,-116 1301.5,-116 1301.5,-175 1301.5,-175 1301.5,-181 1295.5,-187 1289.5,-187"/>
<text text-anchor="start" x="1176.5" y="-171.8" font-family="Helvetica,sans-Serif" font-size="14.00" fill="#000000">HourlyRate ≤ 35.0</text>
<text text-anchor="start" x="1184" y="-156.8" font-family="Helvetica,sans-Serif" font-size="14.00" fill="#000000">entropy = 0.769</text>
<text text-anchor="start" x="1191" y="-141.8" font-family="Helvetica,sans-Serif" font-size="14.00" fill="#000000">samples = 80</text>
<text text-anchor="start" x="1185" y="-126.8" font-family="Helvetica,sans-Serif" font-size="14.00" fill="#000000">value = [62, 18]</text>
<text text-anchor="start" x="1206" y="-111.8" font-family="Helvetica,sans-Serif" font-size="14.00" fill="#000000">class = 1</text>
</g>
<!-- 20&#45;&gt;21 -->
<g id="edge21" class="edge">
<title>20&#45;&gt;21</title>
<path fill="none" stroke="#000000" d="M1235,-222.8796C1235,-214.6838 1235,-205.9891 1235,-197.5013"/>
<polygon fill="#000000" stroke="#000000" points="1238.5001,-197.298 1235,-187.2981 1231.5001,-197.2981 1238.5001,-197.298"/>
</g>
<!-- 24 -->
<g id="node25" class="node">
<title>24</title>
<path fill="#e78b48" stroke="#000000" d="M1515.5,-187C1515.5,-187 1384.5,-187 1384.5,-187 1378.5,-187 1372.5,-181 1372.5,-175 1372.5,-175 1372.5,-116 1372.5,-116 1372.5,-110 1378.5,-104 1384.5,-104 1384.5,-104 1515.5,-104 1515.5,-104 1521.5,-104 1527.5,-110 1527.5,-116 1527.5,-116 1527.5,-175 1527.5,-175 1527.5,-181 1521.5,-187 1515.5,-187"/>
<text text-anchor="start" x="1380.5" y="-171.8" font-family="Helvetica,sans-Serif" font-size="14.00" fill="#000000">JobInvolvement ≤ 3.5</text>
<text text-anchor="start" x="1399" y="-156.8" font-family="Helvetica,sans-Serif" font-size="14.00" fill="#000000">entropy = 0.371</text>
<text text-anchor="start" x="1402" y="-141.8" font-family="Helvetica,sans-Serif" font-size="14.00" fill="#000000">samples = 645</text>
<text text-anchor="start" x="1396" y="-126.8" font-family="Helvetica,sans-Serif" font-size="14.00" fill="#000000">value = [599, 46]</text>
<text text-anchor="start" x="1421" y="-111.8" font-family="Helvetica,sans-Serif" font-size="14.00" fill="#000000">class = 1</text>
</g>
<!-- 20&#45;&gt;24 -->
<g id="edge24" class="edge">
<title>20&#45;&gt;24</title>
<path fill="none" stroke="#000000" d="M1310.1966,-222.8796C1328.1997,-212.915 1347.5355,-202.2129 1365.9119,-192.0418"/>
<polygon fill="#000000" stroke="#000000" points="1367.7916,-195.0018 1374.8459,-187.0969 1364.4017,-188.8773 1367.7916,-195.0018"/>
</g>
<!-- 22 -->
<g id="node23" class="node">
<title>22</title>
<path fill="#399de5" stroke="#000000" d="M1221.5,-68C1221.5,-68 1144.5,-68 1144.5,-68 1138.5,-68 1132.5,-62 1132.5,-56 1132.5,-56 1132.5,-12 1132.5,-12 1132.5,-6 1138.5,0 1144.5,0 1144.5,0 1221.5,0 1221.5,0 1227.5,0 1233.5,-6 1233.5,-12 1233.5,-12 1233.5,-56 1233.5,-56 1233.5,-62 1227.5,-68 1221.5,-68"/>
<text text-anchor="start" x="1140.5" y="-52.8" font-family="Helvetica,sans-Serif" font-size="14.00" fill="#000000">entropy = 0.0</text>
<text text-anchor="start" x="1143.5" y="-37.8" font-family="Helvetica,sans-Serif" font-size="14.00" fill="#000000">samples = 3</text>
<text text-anchor="start" x="1141.5" y="-22.8" font-family="Helvetica,sans-Serif" font-size="14.00" fill="#000000">value = [0, 3]</text>
<text text-anchor="start" x="1154" y="-7.8" font-family="Helvetica,sans-Serif" font-size="14.00" fill="#000000">class = 0</text>
</g>
<!-- 21&#45;&gt;22 -->
<g id="edge22" class="edge">
<title>21&#45;&gt;22</title>
<path fill="none" stroke="#000000" d="M1215.6371,-103.9815C1211.6081,-95.3423 1207.3511,-86.2144 1203.2897,-77.5059"/>
<polygon fill="#000000" stroke="#000000" points="1206.3782,-75.8472 1198.9795,-68.2637 1200.0341,-78.8059 1206.3782,-75.8472"/>
</g>
<!-- 23 -->
<g id="node24" class="node">
<title>23</title>
<path fill="#eb9f69" stroke="#000000" d="M1358,-68C1358,-68 1264,-68 1264,-68 1258,-68 1252,-62 1252,-56 1252,-56 1252,-12 1252,-12 1252,-6 1258,0 1264,0 1264,0 1358,0 1358,0 1364,0 1370,-6 1370,-12 1370,-12 1370,-56 1370,-56 1370,-62 1364,-68 1358,-68"/>
<text text-anchor="start" x="1260" y="-52.8" font-family="Helvetica,sans-Serif" font-size="14.00" fill="#000000">entropy = 0.711</text>
<text text-anchor="start" x="1267" y="-37.8" font-family="Helvetica,sans-Serif" font-size="14.00" fill="#000000">samples = 77</text>
<text text-anchor="start" x="1261" y="-22.8" font-family="Helvetica,sans-Serif" font-size="14.00" fill="#000000">value = [62, 15]</text>
<text text-anchor="start" x="1282" y="-7.8" font-family="Helvetica,sans-Serif" font-size="14.00" fill="#000000">class = 1</text>
</g>
<!-- 21&#45;&gt;23 -->
<g id="edge23" class="edge">
<title>21&#45;&gt;23</title>
<path fill="none" stroke="#000000" d="M1263.2996,-103.9815C1269.3762,-95.0666 1275.8074,-85.6313 1281.9132,-76.6734"/>
<polygon fill="#000000" stroke="#000000" points="1284.9052,-78.498 1287.6454,-68.2637 1279.1211,-74.5555 1284.9052,-78.498"/>
</g>
<!-- 25 -->
<g id="node26" class="node">
<title>25</title>
<path fill="#e78c4a" stroke="#000000" d="M1500,-68C1500,-68 1400,-68 1400,-68 1394,-68 1388,-62 1388,-56 1388,-56 1388,-12 1388,-12 1388,-6 1394,0 1400,0 1400,0 1500,0 1500,0 1506,0 1512,-6 1512,-12 1512,-12 1512,-56 1512,-56 1512,-62 1506,-68 1500,-68"/>
<text text-anchor="start" x="1399" y="-52.8" font-family="Helvetica,sans-Serif" font-size="14.00" fill="#000000">entropy = 0.404</text>
<text text-anchor="start" x="1402" y="-37.8" font-family="Helvetica,sans-Serif" font-size="14.00" fill="#000000">samples = 572</text>
<text text-anchor="start" x="1396" y="-22.8" font-family="Helvetica,sans-Serif" font-size="14.00" fill="#000000">value = [526, 46]</text>
<text text-anchor="start" x="1421" y="-7.8" font-family="Helvetica,sans-Serif" font-size="14.00" fill="#000000">class = 1</text>
</g>
<!-- 24&#45;&gt;25 -->
<g id="edge25" class="edge">
<title>24&#45;&gt;25</title>
<path fill="none" stroke="#000000" d="M1450,-103.9815C1450,-95.618 1450,-86.7965 1450,-78.3409"/>
<polygon fill="#000000" stroke="#000000" points="1453.5001,-78.2636 1450,-68.2637 1446.5001,-78.2637 1453.5001,-78.2636"/>
</g>
<!-- 26 -->
<g id="node27" class="node">
<title>26</title>
<path fill="#e58139" stroke="#000000" d="M1625.5,-68C1625.5,-68 1542.5,-68 1542.5,-68 1536.5,-68 1530.5,-62 1530.5,-56 1530.5,-56 1530.5,-12 1530.5,-12 1530.5,-6 1536.5,0 1542.5,0 1542.5,0 1625.5,0 1625.5,0 1631.5,0 1637.5,-6 1637.5,-12 1637.5,-12 1637.5,-56 1637.5,-56 1637.5,-62 1631.5,-68 1625.5,-68"/>
<text text-anchor="start" x="1541.5" y="-52.8" font-family="Helvetica,sans-Serif" font-size="14.00" fill="#000000">entropy = 0.0</text>
<text text-anchor="start" x="1540" y="-37.8" font-family="Helvetica,sans-Serif" font-size="14.00" fill="#000000">samples = 73</text>
<text text-anchor="start" x="1538.5" y="-22.8" font-family="Helvetica,sans-Serif" font-size="14.00" fill="#000000">value = [73, 0]</text>
<text text-anchor="start" x="1555" y="-7.8" font-family="Helvetica,sans-Serif" font-size="14.00" fill="#000000">class = 1</text>
</g>
<!-- 24&#45;&gt;26 -->
<g id="edge26" class="edge">
<title>24&#45;&gt;26</title>
<path fill="none" stroke="#000000" d="M1499.8967,-103.9815C1511.3838,-94.4232 1523.5897,-84.2668 1535.0367,-74.7419"/>
<polygon fill="#000000" stroke="#000000" points="1537.3739,-77.3503 1542.8221,-68.2637 1532.8965,-71.9695 1537.3739,-77.3503"/>
</g>
</g>
</svg>
