<?xml version="1.0" encoding="UTF-8" standalone="no"?>
<!DOCTYPE svg PUBLIC "-//W3C//DTD SVG 1.1//EN"
 "http://www.w3.org/Graphics/SVG/1.1/DTD/svg11.dtd">
<!-- Generated by graphviz version 2.40.1 (20161225.0304)
 -->
<!-- Title: Tree Pages: 1 -->
<svg width="1599pt" height="552pt"
 viewBox="0.00 0.00 1598.50 552.00" xmlns="http://www.w3.org/2000/svg" xmlns:xlink="http://www.w3.org/1999/xlink">
<g id="graph0" class="graph" transform="scale(1 1) rotate(0) translate(4 548)">
<title>Tree</title>
<polygon fill="#ffffff" stroke="transparent" points="-4,4 -4,-548 1594.5,-548 1594.5,4 -4,4"/>
<!-- 0 -->
<g id="node1" class="node">
<title>0</title>
<path fill="#ea995f" stroke="#000000" d="M680.5,-544C680.5,-544 531.5,-544 531.5,-544 525.5,-544 519.5,-538 519.5,-532 519.5,-532 519.5,-473 519.5,-473 519.5,-467 525.5,-461 531.5,-461 531.5,-461 680.5,-461 680.5,-461 686.5,-461 692.5,-467 692.5,-473 692.5,-473 692.5,-532 692.5,-532 692.5,-538 686.5,-544 680.5,-544"/>
<text text-anchor="start" x="527.5" y="-528.8" font-family="Helvetica,sans-Serif" font-size="14.00" fill="#000000">TotalWorkingYears ≤ 1.5</text>
<text text-anchor="start" x="555" y="-513.8" font-family="Helvetica,sans-Serif" font-size="14.00" fill="#000000">entropy = 0.633</text>
<text text-anchor="start" x="554" y="-498.8" font-family="Helvetica,sans-Serif" font-size="14.00" fill="#000000">samples = 1323</text>
<text text-anchor="start" x="544" y="-483.8" font-family="Helvetica,sans-Serif" font-size="14.00" fill="#000000">value = [1112, 211]</text>
<text text-anchor="start" x="577" y="-468.8" font-family="Helvetica,sans-Serif" font-size="14.00" fill="#000000">class = 1</text>
</g>
<!-- 1 -->
<g id="node2" class="node">
<title>1</title>
<path fill="#ffffff" stroke="#000000" d="M605.5,-425C605.5,-425 352.5,-425 352.5,-425 346.5,-425 340.5,-419 340.5,-413 340.5,-413 340.5,-354 340.5,-354 340.5,-348 346.5,-342 352.5,-342 352.5,-342 605.5,-342 605.5,-342 611.5,-342 617.5,-348 617.5,-354 617.5,-354 617.5,-413 617.5,-413 617.5,-419 611.5,-425 605.5,-425"/>
<text text-anchor="start" x="348.5" y="-409.8" font-family="Helvetica,sans-Serif" font-size="14.00" fill="#000000">BusinessTravel_Travel_Frequently ≤ 0.5</text>
<text text-anchor="start" x="436.5" y="-394.8" font-family="Helvetica,sans-Serif" font-size="14.00" fill="#000000">entropy = 1.0</text>
<text text-anchor="start" x="435" y="-379.8" font-family="Helvetica,sans-Serif" font-size="14.00" fill="#000000">samples = 86</text>
<text text-anchor="start" x="429" y="-364.8" font-family="Helvetica,sans-Serif" font-size="14.00" fill="#000000">value = [43, 43]</text>
<text text-anchor="start" x="450" y="-349.8" font-family="Helvetica,sans-Serif" font-size="14.00" fill="#000000">class = 1</text>
</g>
<!-- 0&#45;&gt;1 -->
<g id="edge1" class="edge">
<title>0&#45;&gt;1</title>
<path fill="none" stroke="#000000" d="M561.5816,-460.8796C551.6814,-451.6031 541.0991,-441.6874 530.9269,-432.1559"/>
<polygon fill="#000000" stroke="#000000" points="533.2984,-429.5816 523.608,-425.2981 528.5121,-434.6896 533.2984,-429.5816"/>
<text text-anchor="middle" x="524.4206" y="-446.5849" font-family="Helvetica,sans-Serif" font-size="14.00" fill="#000000">True</text>
</g>
<!-- 12 -->
<g id="node13" class="node">
<title>12</title>
<path fill="#e99558" stroke="#000000" d="M903.5,-425C903.5,-425 760.5,-425 760.5,-425 754.5,-425 748.5,-419 748.5,-413 748.5,-413 748.5,-354 748.5,-354 748.5,-348 754.5,-342 760.5,-342 760.5,-342 903.5,-342 903.5,-342 909.5,-342 915.5,-348 915.5,-354 915.5,-354 915.5,-413 915.5,-413 915.5,-419 909.5,-425 903.5,-425"/>
<text text-anchor="start" x="756.5" y="-409.8" font-family="Helvetica,sans-Serif" font-size="14.00" fill="#000000">StockOptionLevel ≤ 0.5</text>
<text text-anchor="start" x="781" y="-394.8" font-family="Helvetica,sans-Serif" font-size="14.00" fill="#000000">entropy = 0.573</text>
<text text-anchor="start" x="780" y="-379.8" font-family="Helvetica,sans-Serif" font-size="14.00" fill="#000000">samples = 1237</text>
<text text-anchor="start" x="770" y="-364.8" font-family="Helvetica,sans-Serif" font-size="14.00" fill="#000000">value = [1069, 168]</text>
<text text-anchor="start" x="803" y="-349.8" font-family="Helvetica,sans-Serif" font-size="14.00" fill="#000000">class = 1</text>
</g>
<!-- 0&#45;&gt;12 -->
<g id="edge12" class="edge">
<title>0&#45;&gt;12</title>
<path fill="none" stroke="#000000" d="M685.0438,-460.8796C704.1401,-450.8244 724.6627,-440.0183 744.1362,-429.7645"/>
<polygon fill="#000000" stroke="#000000" points="745.7831,-432.853 753.0008,-425.0969 742.5218,-426.6591 745.7831,-432.853"/>
<text text-anchor="middle" x="745.5952" y="-445.2749" font-family="Helvetica,sans-Serif" font-size="14.00" fill="#000000">False</text>
</g>
<!-- 2 -->
<g id="node3" class="node">
<title>2</title>
<path fill="#f8decb" stroke="#000000" d="M371.5,-306C371.5,-306 262.5,-306 262.5,-306 256.5,-306 250.5,-300 250.5,-294 250.5,-294 250.5,-235 250.5,-235 250.5,-229 256.5,-223 262.5,-223 262.5,-223 371.5,-223 371.5,-223 377.5,-223 383.5,-229 383.5,-235 383.5,-235 383.5,-294 383.5,-294 383.5,-300 377.5,-306 371.5,-306"/>
<text text-anchor="start" x="258.5" y="-290.8" font-family="Helvetica,sans-Serif" font-size="14.00" fill="#000000">HourlyRate ≤ 55.5</text>
<text text-anchor="start" x="266" y="-275.8" font-family="Helvetica,sans-Serif" font-size="14.00" fill="#000000">entropy = 0.984</text>
<text text-anchor="start" x="273" y="-260.8" font-family="Helvetica,sans-Serif" font-size="14.00" fill="#000000">samples = 73</text>
<text text-anchor="start" x="267" y="-245.8" font-family="Helvetica,sans-Serif" font-size="14.00" fill="#000000">value = [42, 31]</text>
<text text-anchor="start" x="288" y="-230.8" font-family="Helvetica,sans-Serif" font-size="14.00" fill="#000000">class = 1</text>
</g>
<!-- 1&#45;&gt;2 -->
<g id="edge2" class="edge">
<title>1&#45;&gt;2</title>
<path fill="none" stroke="#000000" d="M422.3403,-341.8796C409.2684,-332.2774 395.2641,-321.9903 381.8727,-312.1534"/>
<polygon fill="#000000" stroke="#000000" points="383.7591,-309.1963 373.6277,-306.0969 379.615,-314.8378 383.7591,-309.1963"/>
</g>
<!-- 9 -->
<g id="node10" class="node">
<title>9</title>
<path fill="#49a5e7" stroke="#000000" d="M537,-306C537,-306 421,-306 421,-306 415,-306 409,-300 409,-294 409,-294 409,-235 409,-235 409,-229 415,-223 421,-223 421,-223 537,-223 537,-223 543,-223 549,-229 549,-235 549,-235 549,-294 549,-294 549,-300 543,-306 537,-306"/>
<text text-anchor="start" x="417" y="-290.8" font-family="Helvetica,sans-Serif" font-size="14.00" fill="#000000">DailyRate ≤ 1413.5</text>
<text text-anchor="start" x="428" y="-275.8" font-family="Helvetica,sans-Serif" font-size="14.00" fill="#000000">entropy = 0.391</text>
<text text-anchor="start" x="435" y="-260.8" font-family="Helvetica,sans-Serif" font-size="14.00" fill="#000000">samples = 13</text>
<text text-anchor="start" x="433.5" y="-245.8" font-family="Helvetica,sans-Serif" font-size="14.00" fill="#000000">value = [1, 12]</text>
<text text-anchor="start" x="450" y="-230.8" font-family="Helvetica,sans-Serif" font-size="14.00" fill="#000000">class = 0</text>
</g>
<!-- 1&#45;&gt;9 -->
<g id="edge9" class="edge">
<title>1&#45;&gt;9</title>
<path fill="none" stroke="#000000" d="M479,-341.8796C479,-333.6838 479,-324.9891 479,-316.5013"/>
<polygon fill="#000000" stroke="#000000" points="482.5001,-316.298 479,-306.2981 475.5001,-316.2981 482.5001,-316.298"/>
</g>
<!-- 3 -->
<g id="node4" class="node">
<title>3</title>
<path fill="#88c4ef" stroke="#000000" d="M221,-187C221,-187 127,-187 127,-187 121,-187 115,-181 115,-175 115,-175 115,-116 115,-116 115,-110 121,-104 127,-104 127,-104 221,-104 221,-104 227,-104 233,-110 233,-116 233,-116 233,-175 233,-175 233,-181 227,-187 221,-187"/>
<text text-anchor="start" x="139" y="-171.8" font-family="Helvetica,sans-Serif" font-size="14.00" fill="#000000">Age ≤ 33.5</text>
<text text-anchor="start" x="123" y="-156.8" font-family="Helvetica,sans-Serif" font-size="14.00" fill="#000000">entropy = 0.863</text>
<text text-anchor="start" x="130" y="-141.8" font-family="Helvetica,sans-Serif" font-size="14.00" fill="#000000">samples = 21</text>
<text text-anchor="start" x="128.5" y="-126.8" font-family="Helvetica,sans-Serif" font-size="14.00" fill="#000000">value = [6, 15]</text>
<text text-anchor="start" x="145" y="-111.8" font-family="Helvetica,sans-Serif" font-size="14.00" fill="#000000">class = 0</text>
</g>
<!-- 2&#45;&gt;3 -->
<g id="edge3" class="edge">
<title>2&#45;&gt;3</title>
<path fill="none" stroke="#000000" d="M266.9855,-222.8796C255.7299,-213.513 243.6912,-203.4948 232.1354,-193.8784"/>
<polygon fill="#000000" stroke="#000000" points="234.1534,-191.0043 224.2279,-187.2981 229.6758,-196.385 234.1534,-191.0043"/>
</g>
<!-- 6 -->
<g id="node7" class="node">
<title>6</title>
<path fill="#f1b991" stroke="#000000" d="M370.5,-187C370.5,-187 263.5,-187 263.5,-187 257.5,-187 251.5,-181 251.5,-175 251.5,-175 251.5,-116 251.5,-116 251.5,-110 257.5,-104 263.5,-104 263.5,-104 370.5,-104 370.5,-104 376.5,-104 382.5,-110 382.5,-116 382.5,-116 382.5,-175 382.5,-175 382.5,-181 376.5,-187 370.5,-187"/>
<text text-anchor="start" x="259.5" y="-171.8" font-family="Helvetica,sans-Serif" font-size="14.00" fill="#000000">DailyRate ≤ 249.5</text>
<text text-anchor="start" x="270" y="-156.8" font-family="Helvetica,sans-Serif" font-size="14.00" fill="#000000">entropy = 0.89</text>
<text text-anchor="start" x="273" y="-141.8" font-family="Helvetica,sans-Serif" font-size="14.00" fill="#000000">samples = 52</text>
<text text-anchor="start" x="267" y="-126.8" font-family="Helvetica,sans-Serif" font-size="14.00" fill="#000000">value = [36, 16]</text>
<text text-anchor="start" x="288" y="-111.8" font-family="Helvetica,sans-Serif" font-size="14.00" fill="#000000">class = 1</text>
</g>
<!-- 2&#45;&gt;6 -->
<g id="edge6" class="edge">
<title>2&#45;&gt;6</title>
<path fill="none" stroke="#000000" d="M317,-222.8796C317,-214.6838 317,-205.9891 317,-197.5013"/>
<polygon fill="#000000" stroke="#000000" points="320.5001,-197.298 317,-187.2981 313.5001,-197.2981 320.5001,-197.298"/>
</g>
<!-- 4 -->
<g id="node5" class="node">
<title>4</title>
<path fill="#61b1ea" stroke="#000000" d="M98,-68C98,-68 12,-68 12,-68 6,-68 0,-62 0,-56 0,-56 0,-12 0,-12 0,-6 6,0 12,0 12,0 98,0 98,0 104,0 110,-6 110,-12 110,-12 110,-56 110,-56 110,-62 104,-68 98,-68"/>
<text text-anchor="start" x="8" y="-52.8" font-family="Helvetica,sans-Serif" font-size="14.00" fill="#000000">entropy = 0.65</text>
<text text-anchor="start" x="11" y="-37.8" font-family="Helvetica,sans-Serif" font-size="14.00" fill="#000000">samples = 18</text>
<text text-anchor="start" x="9.5" y="-22.8" font-family="Helvetica,sans-Serif" font-size="14.00" fill="#000000">value = [3, 15]</text>
<text text-anchor="start" x="26" y="-7.8" font-family="Helvetica,sans-Serif" font-size="14.00" fill="#000000">class = 0</text>
</g>
<!-- 3&#45;&gt;4 -->
<g id="edge4" class="edge">
<title>3&#45;&gt;4</title>
<path fill="none" stroke="#000000" d="M129.6888,-103.9815C119.6837,-94.607 109.0646,-84.6572 99.0696,-75.2921"/>
<polygon fill="#000000" stroke="#000000" points="101.2588,-72.547 91.5684,-68.2637 96.4726,-77.6551 101.2588,-72.547"/>
</g>
<!-- 5 -->
<g id="node6" class="node">
<title>5</title>
<path fill="#e58139" stroke="#000000" d="M217.5,-68C217.5,-68 140.5,-68 140.5,-68 134.5,-68 128.5,-62 128.5,-56 128.5,-56 128.5,-12 128.5,-12 128.5,-6 134.5,0 140.5,0 140.5,0 217.5,0 217.5,0 223.5,0 229.5,-6 229.5,-12 229.5,-12 229.5,-56 229.5,-56 229.5,-62 223.5,-68 217.5,-68"/>
<text text-anchor="start" x="136.5" y="-52.8" font-family="Helvetica,sans-Serif" font-size="14.00" fill="#000000">entropy = 0.0</text>
<text text-anchor="start" x="139.5" y="-37.8" font-family="Helvetica,sans-Serif" font-size="14.00" fill="#000000">samples = 3</text>
<text text-anchor="start" x="137.5" y="-22.8" font-family="Helvetica,sans-Serif" font-size="14.00" fill="#000000">value = [3, 0]</text>
<text text-anchor="start" x="150" y="-7.8" font-family="Helvetica,sans-Serif" font-size="14.00" fill="#000000">class = 1</text>
</g>
<!-- 3&#45;&gt;5 -->
<g id="edge5" class="edge">
<title>3&#45;&gt;5</title>
<path fill="none" stroke="#000000" d="M175.8618,-103.9815C176.2369,-95.618 176.6324,-86.7965 177.0116,-78.3409"/>
<polygon fill="#000000" stroke="#000000" points="180.5119,-78.4105 177.4635,-68.2637 173.519,-78.0968 180.5119,-78.4105"/>
</g>
<!-- 7 -->
<g id="node8" class="node">
<title>7</title>
<path fill="#61b1ea" stroke="#000000" d="M355,-68C355,-68 269,-68 269,-68 263,-68 257,-62 257,-56 257,-56 257,-12 257,-12 257,-6 263,0 269,0 269,0 355,0 355,0 361,0 367,-6 367,-12 367,-12 367,-56 367,-56 367,-62 361,-68 355,-68"/>
<text text-anchor="start" x="265" y="-52.8" font-family="Helvetica,sans-Serif" font-size="14.00" fill="#000000">entropy = 0.65</text>
<text text-anchor="start" x="272.5" y="-37.8" font-family="Helvetica,sans-Serif" font-size="14.00" fill="#000000">samples = 6</text>
<text text-anchor="start" x="270.5" y="-22.8" font-family="Helvetica,sans-Serif" font-size="14.00" fill="#000000">value = [1, 5]</text>
<text text-anchor="start" x="283" y="-7.8" font-family="Helvetica,sans-Serif" font-size="14.00" fill="#000000">class = 0</text>
</g>
<!-- 6&#45;&gt;7 -->
<g id="edge7" class="edge">
<title>6&#45;&gt;7</title>
<path fill="none" stroke="#000000" d="M315.1382,-103.9815C314.7631,-95.618 314.3676,-86.7965 313.9884,-78.3409"/>
<polygon fill="#000000" stroke="#000000" points="317.481,-78.0968 313.5365,-68.2637 310.4881,-78.4105 317.481,-78.0968"/>
</g>
<!-- 8 -->
<g id="node9" class="node">
<title>8</title>
<path fill="#eda977" stroke="#000000" d="M491,-68C491,-68 397,-68 397,-68 391,-68 385,-62 385,-56 385,-56 385,-12 385,-12 385,-6 391,0 397,0 397,0 491,0 491,0 497,0 503,-6 503,-12 503,-12 503,-56 503,-56 503,-62 497,-68 491,-68"/>
<text text-anchor="start" x="393" y="-52.8" font-family="Helvetica,sans-Serif" font-size="14.00" fill="#000000">entropy = 0.794</text>
<text text-anchor="start" x="400" y="-37.8" font-family="Helvetica,sans-Serif" font-size="14.00" fill="#000000">samples = 46</text>
<text text-anchor="start" x="394" y="-22.8" font-family="Helvetica,sans-Serif" font-size="14.00" fill="#000000">value = [35, 11]</text>
<text text-anchor="start" x="415" y="-7.8" font-family="Helvetica,sans-Serif" font-size="14.00" fill="#000000">class = 1</text>
</g>
<!-- 6&#45;&gt;8 -->
<g id="edge8" class="edge">
<title>6&#45;&gt;8</title>
<path fill="none" stroke="#000000" d="M364.2901,-103.9815C375.0725,-94.5151 386.523,-84.462 397.2813,-75.0168"/>
<polygon fill="#000000" stroke="#000000" points="399.7676,-77.4915 404.9732,-68.2637 395.1493,-72.2311 399.7676,-77.4915"/>
</g>
<!-- 10 -->
<g id="node11" class="node">
<title>10</title>
<path fill="#399de5" stroke="#000000" d="M495.5,-179.5C495.5,-179.5 412.5,-179.5 412.5,-179.5 406.5,-179.5 400.5,-173.5 400.5,-167.5 400.5,-167.5 400.5,-123.5 400.5,-123.5 400.5,-117.5 406.5,-111.5 412.5,-111.5 412.5,-111.5 495.5,-111.5 495.5,-111.5 501.5,-111.5 507.5,-117.5 507.5,-123.5 507.5,-123.5 507.5,-167.5 507.5,-167.5 507.5,-173.5 501.5,-179.5 495.5,-179.5"/>
<text text-anchor="start" x="411.5" y="-164.3" font-family="Helvetica,sans-Serif" font-size="14.00" fill="#000000">entropy = 0.0</text>
<text text-anchor="start" x="410" y="-149.3" font-family="Helvetica,sans-Serif" font-size="14.00" fill="#000000">samples = 12</text>
<text text-anchor="start" x="408.5" y="-134.3" font-family="Helvetica,sans-Serif" font-size="14.00" fill="#000000">value = [0, 12]</text>
<text text-anchor="start" x="425" y="-119.3" font-family="Helvetica,sans-Serif" font-size="14.00" fill="#000000">class = 0</text>
</g>
<!-- 9&#45;&gt;10 -->
<g id="edge10" class="edge">
<title>9&#45;&gt;10</title>
<path fill="none" stroke="#000000" d="M470.2562,-222.8796C468.0154,-212.2134 465.5971,-200.7021 463.3281,-189.9015"/>
<polygon fill="#000000" stroke="#000000" points="466.6903,-188.8817 461.209,-179.8149 459.8398,-190.3209 466.6903,-188.8817"/>
</g>
<!-- 11 -->
<g id="node12" class="node">
<title>11</title>
<path fill="#e58139" stroke="#000000" d="M614.5,-179.5C614.5,-179.5 537.5,-179.5 537.5,-179.5 531.5,-179.5 525.5,-173.5 525.5,-167.5 525.5,-167.5 525.5,-123.5 525.5,-123.5 525.5,-117.5 531.5,-111.5 537.5,-111.5 537.5,-111.5 614.5,-111.5 614.5,-111.5 620.5,-111.5 626.5,-117.5 626.5,-123.5 626.5,-123.5 626.5,-167.5 626.5,-167.5 626.5,-173.5 620.5,-179.5 614.5,-179.5"/>
<text text-anchor="start" x="533.5" y="-164.3" font-family="Helvetica,sans-Serif" font-size="14.00" fill="#000000">entropy = 0.0</text>
<text text-anchor="start" x="536.5" y="-149.3" font-family="Helvetica,sans-Serif" font-size="14.00" fill="#000000">samples = 1</text>
<text text-anchor="start" x="534.5" y="-134.3" font-family="Helvetica,sans-Serif" font-size="14.00" fill="#000000">value = [1, 0]</text>
<text text-anchor="start" x="547" y="-119.3" font-family="Helvetica,sans-Serif" font-size="14.00" fill="#000000">class = 1</text>
</g>
<!-- 9&#45;&gt;11 -->
<g id="edge11" class="edge">
<title>9&#45;&gt;11</title>
<path fill="none" stroke="#000000" d="M512.9259,-222.8796C522.2476,-211.4436 532.3612,-199.0363 541.7036,-187.575"/>
<polygon fill="#000000" stroke="#000000" points="544.4237,-189.7775 548.029,-179.8149 538.9979,-185.3548 544.4237,-189.7775"/>
</g>
<!-- 13 -->
<g id="node14" class="node">
<title>13</title>
<path fill="#eca16b" stroke="#000000" d="M886,-306C886,-306 778,-306 778,-306 772,-306 766,-300 766,-294 766,-294 766,-235 766,-235 766,-229 772,-223 778,-223 778,-223 886,-223 886,-223 892,-223 898,-229 898,-235 898,-235 898,-294 898,-294 898,-300 892,-306 886,-306"/>
<text text-anchor="start" x="797" y="-290.8" font-family="Helvetica,sans-Serif" font-size="14.00" fill="#000000">Age ≤ 33.5</text>
<text text-anchor="start" x="781" y="-275.8" font-family="Helvetica,sans-Serif" font-size="14.00" fill="#000000">entropy = 0.728</text>
<text text-anchor="start" x="784" y="-260.8" font-family="Helvetica,sans-Serif" font-size="14.00" fill="#000000">samples = 512</text>
<text text-anchor="start" x="774" y="-245.8" font-family="Helvetica,sans-Serif" font-size="14.00" fill="#000000">value = [408, 104]</text>
<text text-anchor="start" x="803" y="-230.8" font-family="Helvetica,sans-Serif" font-size="14.00" fill="#000000">class = 1</text>
</g>
<!-- 12&#45;&gt;13 -->
<g id="edge13" class="edge">
<title>12&#45;&gt;13</title>
<path fill="none" stroke="#000000" d="M832,-341.8796C832,-333.6838 832,-324.9891 832,-316.5013"/>
<polygon fill="#000000" stroke="#000000" points="835.5001,-316.298 832,-306.2981 828.5001,-316.2981 835.5001,-316.298"/>
</g>
<!-- 20 -->
<g id="node21" class="node">
<title>20</title>
<path fill="#e88d4c" stroke="#000000" d="M1260,-306C1260,-306 1108,-306 1108,-306 1102,-306 1096,-300 1096,-294 1096,-294 1096,-235 1096,-235 1096,-229 1102,-223 1108,-223 1108,-223 1260,-223 1260,-223 1266,-223 1272,-229 1272,-235 1272,-235 1272,-294 1272,-294 1272,-300 1266,-306 1260,-306"/>
<text text-anchor="start" x="1104" y="-290.8" font-family="Helvetica,sans-Serif" font-size="14.00" fill="#000000">MonthlyIncome ≤ 2464.5</text>
<text text-anchor="start" x="1133" y="-275.8" font-family="Helvetica,sans-Serif" font-size="14.00" fill="#000000">entropy = 0.431</text>
<text text-anchor="start" x="1136" y="-260.8" font-family="Helvetica,sans-Serif" font-size="14.00" fill="#000000">samples = 725</text>
<text text-anchor="start" x="1130" y="-245.8" font-family="Helvetica,sans-Serif" font-size="14.00" fill="#000000">value = [661, 64]</text>
<text text-anchor="start" x="1155" y="-230.8" font-family="Helvetica,sans-Serif" font-size="14.00" fill="#000000">class = 1</text>
</g>
<!-- 12&#45;&gt;20 -->
<g id="edge20" class="edge">
<title>12&#45;&gt;20</title>
<path fill="none" stroke="#000000" d="M915.8656,-355.1477C967.0843,-337.8323 1032.801,-315.6156 1086.3556,-297.5105"/>
<polygon fill="#000000" stroke="#000000" points="1087.5124,-300.8141 1095.8648,-294.2957 1085.2705,-294.1827 1087.5124,-300.8141"/>
</g>
<!-- 14 -->
<g id="node15" class="node">
<title>14</title>
<path fill="#f0b890" stroke="#000000" d="M797.5,-187C797.5,-187 656.5,-187 656.5,-187 650.5,-187 644.5,-181 644.5,-175 644.5,-175 644.5,-116 644.5,-116 644.5,-110 650.5,-104 656.5,-104 656.5,-104 797.5,-104 797.5,-104 803.5,-104 809.5,-110 809.5,-116 809.5,-116 809.5,-175 809.5,-175 809.5,-181 803.5,-187 797.5,-187"/>
<text text-anchor="start" x="652.5" y="-171.8" font-family="Helvetica,sans-Serif" font-size="14.00" fill="#000000">YearsAtCompany ≤ 2.5</text>
<text text-anchor="start" x="676" y="-156.8" font-family="Helvetica,sans-Serif" font-size="14.00" fill="#000000">entropy = 0.887</text>
<text text-anchor="start" x="679" y="-141.8" font-family="Helvetica,sans-Serif" font-size="14.00" fill="#000000">samples = 200</text>
<text text-anchor="start" x="673" y="-126.8" font-family="Helvetica,sans-Serif" font-size="14.00" fill="#000000">value = [139, 61]</text>
<text text-anchor="start" x="698" y="-111.8" font-family="Helvetica,sans-Serif" font-size="14.00" fill="#000000">class = 1</text>
</g>
<!-- 13&#45;&gt;14 -->
<g id="edge14" class="edge">
<title>13&#45;&gt;14</title>
<path fill="none" stroke="#000000" d="M795.2761,-222.8796C787.3293,-213.8733 778.851,-204.2644 770.6674,-194.9897"/>
<polygon fill="#000000" stroke="#000000" points="773.1213,-192.4808 763.8807,-187.2981 767.8725,-197.1122 773.1213,-192.4808"/>
</g>
<!-- 17 -->
<g id="node18" class="node">
<title>17</title>
<path fill="#e99559" stroke="#000000" d="M1034,-187C1034,-187 840,-187 840,-187 834,-187 828,-181 828,-175 828,-175 828,-116 828,-116 828,-110 834,-104 840,-104 840,-104 1034,-104 1034,-104 1040,-104 1046,-110 1046,-116 1046,-116 1046,-175 1046,-175 1046,-181 1040,-187 1034,-187"/>
<text text-anchor="start" x="836" y="-171.8" font-family="Helvetica,sans-Serif" font-size="14.00" fill="#000000">JobRole_Sales Executive ≤ 0.5</text>
<text text-anchor="start" x="886" y="-156.8" font-family="Helvetica,sans-Serif" font-size="14.00" fill="#000000">entropy = 0.579</text>
<text text-anchor="start" x="889" y="-141.8" font-family="Helvetica,sans-Serif" font-size="14.00" fill="#000000">samples = 312</text>
<text text-anchor="start" x="883" y="-126.8" font-family="Helvetica,sans-Serif" font-size="14.00" fill="#000000">value = [269, 43]</text>
<text text-anchor="start" x="908" y="-111.8" font-family="Helvetica,sans-Serif" font-size="14.00" fill="#000000">class = 1</text>
</g>
<!-- 13&#45;&gt;17 -->
<g id="edge17" class="edge">
<title>13&#45;&gt;17</title>
<path fill="none" stroke="#000000" d="M868.7239,-222.8796C876.6707,-213.8733 885.149,-204.2644 893.3326,-194.9897"/>
<polygon fill="#000000" stroke="#000000" points="896.1275,-197.1122 900.1193,-187.2981 890.8787,-192.4808 896.1275,-197.1122"/>
</g>
<!-- 15 -->
<g id="node16" class="node">
<title>15</title>
<path fill="#dbedfa" stroke="#000000" d="M635,-68C635,-68 541,-68 541,-68 535,-68 529,-62 529,-56 529,-56 529,-12 529,-12 529,-6 535,0 541,0 541,0 635,0 635,0 641,0 647,-6 647,-12 647,-12 647,-56 647,-56 647,-62 641,-68 635,-68"/>
<text text-anchor="start" x="537" y="-52.8" font-family="Helvetica,sans-Serif" font-size="14.00" fill="#000000">entropy = 0.993</text>
<text text-anchor="start" x="544" y="-37.8" font-family="Helvetica,sans-Serif" font-size="14.00" fill="#000000">samples = 40</text>
<text text-anchor="start" x="538" y="-22.8" font-family="Helvetica,sans-Serif" font-size="14.00" fill="#000000">value = [18, 22]</text>
<text text-anchor="start" x="559" y="-7.8" font-family="Helvetica,sans-Serif" font-size="14.00" fill="#000000">class = 0</text>
</g>
<!-- 14&#45;&gt;15 -->
<g id="edge15" class="edge">
<title>14&#45;&gt;15</title>
<path fill="none" stroke="#000000" d="M675.2415,-103.9815C663.3258,-94.4232 650.6644,-84.2668 638.7903,-74.7419"/>
<polygon fill="#000000" stroke="#000000" points="640.7049,-71.7907 630.7144,-68.2637 636.3248,-77.2511 640.7049,-71.7907"/>
</g>
<!-- 16 -->
<g id="node17" class="node">
<title>16</title>
<path fill="#edaa79" stroke="#000000" d="M777,-68C777,-68 677,-68 677,-68 671,-68 665,-62 665,-56 665,-56 665,-12 665,-12 665,-6 671,0 677,0 677,0 777,0 777,0 783,0 789,-6 789,-12 789,-12 789,-56 789,-56 789,-62 783,-68 777,-68"/>
<text text-anchor="start" x="676" y="-52.8" font-family="Helvetica,sans-Serif" font-size="14.00" fill="#000000">entropy = 0.801</text>
<text text-anchor="start" x="679" y="-37.8" font-family="Helvetica,sans-Serif" font-size="14.00" fill="#000000">samples = 160</text>
<text text-anchor="start" x="673" y="-22.8" font-family="Helvetica,sans-Serif" font-size="14.00" fill="#000000">value = [121, 39]</text>
<text text-anchor="start" x="698" y="-7.8" font-family="Helvetica,sans-Serif" font-size="14.00" fill="#000000">class = 1</text>
</g>
<!-- 14&#45;&gt;16 -->
<g id="edge16" class="edge">
<title>14&#45;&gt;16</title>
<path fill="none" stroke="#000000" d="M727,-103.9815C727,-95.618 727,-86.7965 727,-78.3409"/>
<polygon fill="#000000" stroke="#000000" points="730.5001,-78.2636 727,-68.2637 723.5001,-78.2637 730.5001,-78.2636"/>
</g>
<!-- 18 -->
<g id="node19" class="node">
<title>18</title>
<path fill="#e88f4e" stroke="#000000" d="M919,-68C919,-68 819,-68 819,-68 813,-68 807,-62 807,-56 807,-56 807,-12 807,-12 807,-6 813,0 819,0 819,0 919,0 919,0 925,0 931,-6 931,-12 931,-12 931,-56 931,-56 931,-62 925,-68 919,-68"/>
<text text-anchor="start" x="818" y="-52.8" font-family="Helvetica,sans-Serif" font-size="14.00" fill="#000000">entropy = 0.461</text>
<text text-anchor="start" x="821" y="-37.8" font-family="Helvetica,sans-Serif" font-size="14.00" fill="#000000">samples = 236</text>
<text text-anchor="start" x="815" y="-22.8" font-family="Helvetica,sans-Serif" font-size="14.00" fill="#000000">value = [213, 23]</text>
<text text-anchor="start" x="840" y="-7.8" font-family="Helvetica,sans-Serif" font-size="14.00" fill="#000000">class = 1</text>
</g>
<!-- 17&#45;&gt;18 -->
<g id="edge18" class="edge">
<title>17&#45;&gt;18</title>
<path fill="none" stroke="#000000" d="M911.6793,-103.9815C906.2984,-95.1585 900.6068,-85.8258 895.1941,-76.9506"/>
<polygon fill="#000000" stroke="#000000" points="898.0912,-74.9789 889.8962,-68.2637 892.1149,-78.6236 898.0912,-74.9789"/>
</g>
<!-- 19 -->
<g id="node20" class="node">
<title>19</title>
<path fill="#eeae80" stroke="#000000" d="M1055,-68C1055,-68 961,-68 961,-68 955,-68 949,-62 949,-56 949,-56 949,-12 949,-12 949,-6 955,0 961,0 961,0 1055,0 1055,0 1061,0 1067,-6 1067,-12 1067,-12 1067,-56 1067,-56 1067,-62 1061,-68 1055,-68"/>
<text text-anchor="start" x="957" y="-52.8" font-family="Helvetica,sans-Serif" font-size="14.00" fill="#000000">entropy = 0.831</text>
<text text-anchor="start" x="964" y="-37.8" font-family="Helvetica,sans-Serif" font-size="14.00" fill="#000000">samples = 76</text>
<text text-anchor="start" x="958" y="-22.8" font-family="Helvetica,sans-Serif" font-size="14.00" fill="#000000">value = [56, 20]</text>
<text text-anchor="start" x="979" y="-7.8" font-family="Helvetica,sans-Serif" font-size="14.00" fill="#000000">class = 1</text>
</g>
<!-- 17&#45;&gt;19 -->
<g id="edge19" class="edge">
<title>17&#45;&gt;19</title>
<path fill="none" stroke="#000000" d="M963.4378,-103.9815C969.056,-95.1585 974.9988,-85.8258 980.6503,-76.9506"/>
<polygon fill="#000000" stroke="#000000" points="983.7629,-78.5787 986.1819,-68.2637 977.8584,-74.8188 983.7629,-78.5787"/>
</g>
<!-- 21 -->
<g id="node22" class="node">
<title>21</title>
<path fill="#eda672" stroke="#000000" d="M1238.5,-187C1238.5,-187 1129.5,-187 1129.5,-187 1123.5,-187 1117.5,-181 1117.5,-175 1117.5,-175 1117.5,-116 1117.5,-116 1117.5,-110 1123.5,-104 1129.5,-104 1129.5,-104 1238.5,-104 1238.5,-104 1244.5,-104 1250.5,-110 1250.5,-116 1250.5,-116 1250.5,-175 1250.5,-175 1250.5,-181 1244.5,-187 1238.5,-187"/>
<text text-anchor="start" x="1125.5" y="-171.8" font-family="Helvetica,sans-Serif" font-size="14.00" fill="#000000">HourlyRate ≤ 35.0</text>
<text text-anchor="start" x="1133" y="-156.8" font-family="Helvetica,sans-Serif" font-size="14.00" fill="#000000">entropy = 0.769</text>
<text text-anchor="start" x="1140" y="-141.8" font-family="Helvetica,sans-Serif" font-size="14.00" fill="#000000">samples = 80</text>
<text text-anchor="start" x="1134" y="-126.8" font-family="Helvetica,sans-Serif" font-size="14.00" fill="#000000">value = [62, 18]</text>
<text text-anchor="start" x="1155" y="-111.8" font-family="Helvetica,sans-Serif" font-size="14.00" fill="#000000">class = 1</text>
</g>
<!-- 20&#45;&gt;21 -->
<g id="edge21" class="edge">
<title>20&#45;&gt;21</title>
<path fill="none" stroke="#000000" d="M1184,-222.8796C1184,-214.6838 1184,-205.9891 1184,-197.5013"/>
<polygon fill="#000000" stroke="#000000" points="1187.5001,-197.298 1184,-187.2981 1180.5001,-197.2981 1187.5001,-197.298"/>
</g>
<!-- 24 -->
<g id="node25" class="node">
<title>24</title>
<path fill="#e78b48" stroke="#000000" d="M1476.5,-187C1476.5,-187 1329.5,-187 1329.5,-187 1323.5,-187 1317.5,-181 1317.5,-175 1317.5,-175 1317.5,-116 1317.5,-116 1317.5,-110 1323.5,-104 1329.5,-104 1329.5,-104 1476.5,-104 1476.5,-104 1482.5,-104 1488.5,-110 1488.5,-116 1488.5,-116 1488.5,-175 1488.5,-175 1488.5,-181 1482.5,-187 1476.5,-187"/>
<text text-anchor="start" x="1325.5" y="-171.8" font-family="Helvetica,sans-Serif" font-size="14.00" fill="#000000">JobInvolvement ≤ 0.833</text>
<text text-anchor="start" x="1352" y="-156.8" font-family="Helvetica,sans-Serif" font-size="14.00" fill="#000000">entropy = 0.371</text>
<text text-anchor="start" x="1355" y="-141.8" font-family="Helvetica,sans-Serif" font-size="14.00" fill="#000000">samples = 645</text>
<text text-anchor="start" x="1349" y="-126.8" font-family="Helvetica,sans-Serif" font-size="14.00" fill="#000000">value = [599, 46]</text>
<text text-anchor="start" x="1374" y="-111.8" font-family="Helvetica,sans-Serif" font-size="14.00" fill="#000000">class = 1</text>
</g>
<!-- 20&#45;&gt;24 -->
<g id="edge24" class="edge">
<title>20&#45;&gt;24</title>
<path fill="none" stroke="#000000" d="M1260.5956,-222.8796C1279.017,-212.8697 1298.8082,-202.1156 1317.6026,-191.9031"/>
<polygon fill="#000000" stroke="#000000" points="1319.3321,-194.9468 1326.4477,-187.0969 1315.99,-188.7961 1319.3321,-194.9468"/>
</g>
<!-- 22 -->
<g id="node23" class="node">
<title>22</title>
<path fill="#399de5" stroke="#000000" d="M1174.5,-68C1174.5,-68 1097.5,-68 1097.5,-68 1091.5,-68 1085.5,-62 1085.5,-56 1085.5,-56 1085.5,-12 1085.5,-12 1085.5,-6 1091.5,0 1097.5,0 1097.5,0 1174.5,0 1174.5,0 1180.5,0 1186.5,-6 1186.5,-12 1186.5,-12 1186.5,-56 1186.5,-56 1186.5,-62 1180.5,-68 1174.5,-68"/>
<text text-anchor="start" x="1093.5" y="-52.8" font-family="Helvetica,sans-Serif" font-size="14.00" fill="#000000">entropy = 0.0</text>
<text text-anchor="start" x="1096.5" y="-37.8" font-family="Helvetica,sans-Serif" font-size="14.00" fill="#000000">samples = 3</text>
<text text-anchor="start" x="1094.5" y="-22.8" font-family="Helvetica,sans-Serif" font-size="14.00" fill="#000000">value = [0, 3]</text>
<text text-anchor="start" x="1107" y="-7.8" font-family="Helvetica,sans-Serif" font-size="14.00" fill="#000000">class = 0</text>
</g>
<!-- 21&#45;&gt;22 -->
<g id="edge22" class="edge">
<title>21&#45;&gt;22</title>
<path fill="none" stroke="#000000" d="M1166.1266,-103.9815C1162.4074,-95.3423 1158.478,-86.2144 1154.729,-77.5059"/>
<polygon fill="#000000" stroke="#000000" points="1157.9192,-76.0648 1150.7503,-68.2637 1151.4897,-78.8327 1157.9192,-76.0648"/>
</g>
<!-- 23 -->
<g id="node24" class="node">
<title>23</title>
<path fill="#eb9f69" stroke="#000000" d="M1311,-68C1311,-68 1217,-68 1217,-68 1211,-68 1205,-62 1205,-56 1205,-56 1205,-12 1205,-12 1205,-6 1211,0 1217,0 1217,0 1311,0 1311,0 1317,0 1323,-6 1323,-12 1323,-12 1323,-56 1323,-56 1323,-62 1317,-68 1311,-68"/>
<text text-anchor="start" x="1213" y="-52.8" font-family="Helvetica,sans-Serif" font-size="14.00" fill="#000000">entropy = 0.711</text>
<text text-anchor="start" x="1220" y="-37.8" font-family="Helvetica,sans-Serif" font-size="14.00" fill="#000000">samples = 77</text>
<text text-anchor="start" x="1214" y="-22.8" font-family="Helvetica,sans-Serif" font-size="14.00" fill="#000000">value = [62, 15]</text>
<text text-anchor="start" x="1235" y="-7.8" font-family="Helvetica,sans-Serif" font-size="14.00" fill="#000000">class = 1</text>
</g>
<!-- 21&#45;&gt;23 -->
<g id="edge23" class="edge">
<title>21&#45;&gt;23</title>
<path fill="none" stroke="#000000" d="M1213.789,-103.9815C1220.2514,-94.9747 1227.0948,-85.4367 1233.581,-76.3965"/>
<polygon fill="#000000" stroke="#000000" points="1236.4303,-78.4291 1239.4162,-68.2637 1230.7428,-74.3483 1236.4303,-78.4291"/>
</g>
<!-- 25 -->
<g id="node26" class="node">
<title>25</title>
<path fill="#e78c4a" stroke="#000000" d="M1453,-68C1453,-68 1353,-68 1353,-68 1347,-68 1341,-62 1341,-56 1341,-56 1341,-12 1341,-12 1341,-6 1347,0 1353,0 1353,0 1453,0 1453,0 1459,0 1465,-6 1465,-12 1465,-12 1465,-56 1465,-56 1465,-62 1459,-68 1453,-68"/>
<text text-anchor="start" x="1352" y="-52.8" font-family="Helvetica,sans-Serif" font-size="14.00" fill="#000000">entropy = 0.404</text>
<text text-anchor="start" x="1355" y="-37.8" font-family="Helvetica,sans-Serif" font-size="14.00" fill="#000000">samples = 572</text>
<text text-anchor="start" x="1349" y="-22.8" font-family="Helvetica,sans-Serif" font-size="14.00" fill="#000000">value = [526, 46]</text>
<text text-anchor="start" x="1374" y="-7.8" font-family="Helvetica,sans-Serif" font-size="14.00" fill="#000000">class = 1</text>
</g>
<!-- 24&#45;&gt;25 -->
<g id="edge25" class="edge">
<title>24&#45;&gt;25</title>
<path fill="none" stroke="#000000" d="M1403,-103.9815C1403,-95.618 1403,-86.7965 1403,-78.3409"/>
<polygon fill="#000000" stroke="#000000" points="1406.5001,-78.2636 1403,-68.2637 1399.5001,-78.2637 1406.5001,-78.2636"/>
</g>
<!-- 26 -->
<g id="node27" class="node">
<title>26</title>
<path fill="#e58139" stroke="#000000" d="M1578.5,-68C1578.5,-68 1495.5,-68 1495.5,-68 1489.5,-68 1483.5,-62 1483.5,-56 1483.5,-56 1483.5,-12 1483.5,-12 1483.5,-6 1489.5,0 1495.5,0 1495.5,0 1578.5,0 1578.5,0 1584.5,0 1590.5,-6 1590.5,-12 1590.5,-12 1590.5,-56 1590.5,-56 1590.5,-62 1584.5,-68 1578.5,-68"/>
<text text-anchor="start" x="1494.5" y="-52.8" font-family="Helvetica,sans-Serif" font-size="14.00" fill="#000000">entropy = 0.0</text>
<text text-anchor="start" x="1493" y="-37.8" font-family="Helvetica,sans-Serif" font-size="14.00" fill="#000000">samples = 73</text>
<text text-anchor="start" x="1491.5" y="-22.8" font-family="Helvetica,sans-Serif" font-size="14.00" fill="#000000">value = [73, 0]</text>
<text text-anchor="start" x="1508" y="-7.8" font-family="Helvetica,sans-Serif" font-size="14.00" fill="#000000">class = 1</text>
</g>
<!-- 24&#45;&gt;26 -->
<g id="edge26" class="edge">
<title>24&#45;&gt;26</title>
<path fill="none" stroke="#000000" d="M1452.8967,-103.9815C1464.3838,-94.4232 1476.5897,-84.2668 1488.0367,-74.7419"/>
<polygon fill="#000000" stroke="#000000" points="1490.3739,-77.3503 1495.8221,-68.2637 1485.8965,-71.9695 1490.3739,-77.3503"/>
</g>
</g>
</svg>
