<?xml version="1.0" encoding="UTF-8" standalone="no"?>
<!DOCTYPE svg PUBLIC "-//W3C//DTD SVG 1.1//EN"
 "http://www.w3.org/Graphics/SVG/1.1/DTD/svg11.dtd">
<!-- Generated by graphviz version 2.40.1 (20161225.0304)
 -->
<!-- Title: Tree Pages: 1 -->
<svg width="1067pt" height="433pt"
 viewBox="0.00 0.00 1067.00 433.00" xmlns="http://www.w3.org/2000/svg" xmlns:xlink="http://www.w3.org/1999/xlink">
<g id="graph0" class="graph" transform="scale(1 1) rotate(0) translate(4 429)">
<title>Tree</title>
<polygon fill="#ffffff" stroke="transparent" points="-4,4 -4,-429 1063,-429 1063,4 -4,4"/>
<!-- 0 -->
<g id="node1" class="node">
<title>0</title>
<path fill="#ea995f" stroke="#000000" d="M537.5,-425C537.5,-425 388.5,-425 388.5,-425 382.5,-425 376.5,-419 376.5,-413 376.5,-413 376.5,-354 376.5,-354 376.5,-348 382.5,-342 388.5,-342 388.5,-342 537.5,-342 537.5,-342 543.5,-342 549.5,-348 549.5,-354 549.5,-354 549.5,-413 549.5,-413 549.5,-419 543.5,-425 537.5,-425"/>
<text text-anchor="start" x="384.5" y="-409.8" font-family="Helvetica,sans-Serif" font-size="14.00" fill="#000000">TotalWorkingYears ≤ 1.5</text>
<text text-anchor="start" x="412" y="-394.8" font-family="Helvetica,sans-Serif" font-size="14.00" fill="#000000">entropy = 0.633</text>
<text text-anchor="start" x="411" y="-379.8" font-family="Helvetica,sans-Serif" font-size="14.00" fill="#000000">samples = 1323</text>
<text text-anchor="start" x="401" y="-364.8" font-family="Helvetica,sans-Serif" font-size="14.00" fill="#000000">value = [1112, 211]</text>
<text text-anchor="start" x="434" y="-349.8" font-family="Helvetica,sans-Serif" font-size="14.00" fill="#000000">class = 1</text>
</g>
<!-- 1 -->
<g id="node2" class="node">
<title>1</title>
<path fill="#ffffff" stroke="#000000" d="M470.5,-306C470.5,-306 217.5,-306 217.5,-306 211.5,-306 205.5,-300 205.5,-294 205.5,-294 205.5,-235 205.5,-235 205.5,-229 211.5,-223 217.5,-223 217.5,-223 470.5,-223 470.5,-223 476.5,-223 482.5,-229 482.5,-235 482.5,-235 482.5,-294 482.5,-294 482.5,-300 476.5,-306 470.5,-306"/>
<text text-anchor="start" x="213.5" y="-290.8" font-family="Helvetica,sans-Serif" font-size="14.00" fill="#000000">BusinessTravel_Travel_Frequently ≤ 0.5</text>
<text text-anchor="start" x="301.5" y="-275.8" font-family="Helvetica,sans-Serif" font-size="14.00" fill="#000000">entropy = 1.0</text>
<text text-anchor="start" x="300" y="-260.8" font-family="Helvetica,sans-Serif" font-size="14.00" fill="#000000">samples = 86</text>
<text text-anchor="start" x="294" y="-245.8" font-family="Helvetica,sans-Serif" font-size="14.00" fill="#000000">value = [43, 43]</text>
<text text-anchor="start" x="315" y="-230.8" font-family="Helvetica,sans-Serif" font-size="14.00" fill="#000000">class = 1</text>
</g>
<!-- 0&#45;&gt;1 -->
<g id="edge1" class="edge">
<title>0&#45;&gt;1</title>
<path fill="none" stroke="#000000" d="M421.3796,-341.8796C412.1931,-332.6931 402.3798,-322.8798 392.9336,-313.4336"/>
<polygon fill="#000000" stroke="#000000" points="395.3441,-310.8943 385.7981,-306.2981 390.3943,-315.8441 395.3441,-310.8943"/>
<text text-anchor="middle" x="385.7981" y="-327.5981" font-family="Helvetica,sans-Serif" font-size="14.00" fill="#000000">True</text>
</g>
<!-- 8 -->
<g id="node9" class="node">
<title>8</title>
<path fill="#e99558" stroke="#000000" d="M641,-306C641,-306 525,-306 525,-306 519,-306 513,-300 513,-294 513,-294 513,-235 513,-235 513,-229 519,-223 525,-223 525,-223 641,-223 641,-223 647,-223 653,-229 653,-235 653,-235 653,-294 653,-294 653,-300 647,-306 641,-306"/>
<text text-anchor="start" x="535.5" y="-290.8" font-family="Helvetica,sans-Serif" font-size="14.00" fill="#000000">JobLevel ≤ 1.5</text>
<text text-anchor="start" x="532" y="-275.8" font-family="Helvetica,sans-Serif" font-size="14.00" fill="#000000">entropy = 0.573</text>
<text text-anchor="start" x="531" y="-260.8" font-family="Helvetica,sans-Serif" font-size="14.00" fill="#000000">samples = 1237</text>
<text text-anchor="start" x="521" y="-245.8" font-family="Helvetica,sans-Serif" font-size="14.00" fill="#000000">value = [1069, 168]</text>
<text text-anchor="start" x="554" y="-230.8" font-family="Helvetica,sans-Serif" font-size="14.00" fill="#000000">class = 1</text>
</g>
<!-- 0&#45;&gt;8 -->
<g id="edge8" class="edge">
<title>0&#45;&gt;8</title>
<path fill="none" stroke="#000000" d="M504.9702,-341.8796C514.2338,-332.6931 524.1296,-322.8798 533.6552,-313.4336"/>
<polygon fill="#000000" stroke="#000000" points="536.2146,-315.8247 540.8507,-306.2981 531.2856,-310.8543 536.2146,-315.8247"/>
<text text-anchor="middle" x="540.7461" y="-327.5979" font-family="Helvetica,sans-Serif" font-size="14.00" fill="#000000">False</text>
</g>
<!-- 2 -->
<g id="node3" class="node">
<title>2</title>
<path fill="#f8decb" stroke="#000000" d="M248.5,-187C248.5,-187 139.5,-187 139.5,-187 133.5,-187 127.5,-181 127.5,-175 127.5,-175 127.5,-116 127.5,-116 127.5,-110 133.5,-104 139.5,-104 139.5,-104 248.5,-104 248.5,-104 254.5,-104 260.5,-110 260.5,-116 260.5,-116 260.5,-175 260.5,-175 260.5,-181 254.5,-187 248.5,-187"/>
<text text-anchor="start" x="135.5" y="-171.8" font-family="Helvetica,sans-Serif" font-size="14.00" fill="#000000">HourlyRate ≤ 55.5</text>
<text text-anchor="start" x="143" y="-156.8" font-family="Helvetica,sans-Serif" font-size="14.00" fill="#000000">entropy = 0.984</text>
<text text-anchor="start" x="150" y="-141.8" font-family="Helvetica,sans-Serif" font-size="14.00" fill="#000000">samples = 73</text>
<text text-anchor="start" x="144" y="-126.8" font-family="Helvetica,sans-Serif" font-size="14.00" fill="#000000">value = [42, 31]</text>
<text text-anchor="start" x="165" y="-111.8" font-family="Helvetica,sans-Serif" font-size="14.00" fill="#000000">class = 1</text>
</g>
<!-- 1&#45;&gt;2 -->
<g id="edge2" class="edge">
<title>1&#45;&gt;2</title>
<path fill="none" stroke="#000000" d="M291.5373,-222.8796C279.5479,-213.368 266.7113,-203.1843 254.4184,-193.432"/>
<polygon fill="#000000" stroke="#000000" points="256.4425,-190.5701 246.4331,-187.0969 252.0919,-196.054 256.4425,-190.5701"/>
</g>
<!-- 5 -->
<g id="node6" class="node">
<title>5</title>
<path fill="#49a5e7" stroke="#000000" d="M391,-187C391,-187 297,-187 297,-187 291,-187 285,-181 285,-175 285,-175 285,-116 285,-116 285,-110 291,-104 297,-104 297,-104 391,-104 391,-104 397,-104 403,-110 403,-116 403,-116 403,-175 403,-175 403,-181 397,-187 391,-187"/>
<text text-anchor="start" x="309" y="-171.8" font-family="Helvetica,sans-Serif" font-size="14.00" fill="#000000">Age ≤ 34.5</text>
<text text-anchor="start" x="293" y="-156.8" font-family="Helvetica,sans-Serif" font-size="14.00" fill="#000000">entropy = 0.391</text>
<text text-anchor="start" x="300" y="-141.8" font-family="Helvetica,sans-Serif" font-size="14.00" fill="#000000">samples = 13</text>
<text text-anchor="start" x="298.5" y="-126.8" font-family="Helvetica,sans-Serif" font-size="14.00" fill="#000000">value = [1, 12]</text>
<text text-anchor="start" x="315" y="-111.8" font-family="Helvetica,sans-Serif" font-size="14.00" fill="#000000">class = 0</text>
</g>
<!-- 1&#45;&gt;5 -->
<g id="edge5" class="edge">
<title>1&#45;&gt;5</title>
<path fill="none" stroke="#000000" d="M344,-222.8796C344,-214.6838 344,-205.9891 344,-197.5013"/>
<polygon fill="#000000" stroke="#000000" points="347.5001,-197.298 344,-187.2981 340.5001,-197.2981 347.5001,-197.298"/>
</g>
<!-- 3 -->
<g id="node4" class="node">
<title>3</title>
<path fill="#88c4ef" stroke="#000000" d="M106,-68C106,-68 12,-68 12,-68 6,-68 0,-62 0,-56 0,-56 0,-12 0,-12 0,-6 6,0 12,0 12,0 106,0 106,0 112,0 118,-6 118,-12 118,-12 118,-56 118,-56 118,-62 112,-68 106,-68"/>
<text text-anchor="start" x="8" y="-52.8" font-family="Helvetica,sans-Serif" font-size="14.00" fill="#000000">entropy = 0.863</text>
<text text-anchor="start" x="15" y="-37.8" font-family="Helvetica,sans-Serif" font-size="14.00" fill="#000000">samples = 21</text>
<text text-anchor="start" x="13.5" y="-22.8" font-family="Helvetica,sans-Serif" font-size="14.00" fill="#000000">value = [6, 15]</text>
<text text-anchor="start" x="30" y="-7.8" font-family="Helvetica,sans-Serif" font-size="14.00" fill="#000000">class = 0</text>
</g>
<!-- 2&#45;&gt;3 -->
<g id="edge3" class="edge">
<title>2&#45;&gt;3</title>
<path fill="none" stroke="#000000" d="M143.731,-103.9815C132.1582,-94.4232 119.8611,-84.2668 108.3287,-74.7419"/>
<polygon fill="#000000" stroke="#000000" points="110.4243,-71.9332 100.4852,-68.2637 105.9666,-77.3304 110.4243,-71.9332"/>
</g>
<!-- 4 -->
<g id="node5" class="node">
<title>4</title>
<path fill="#f1b991" stroke="#000000" d="M240,-68C240,-68 148,-68 148,-68 142,-68 136,-62 136,-56 136,-56 136,-12 136,-12 136,-6 142,0 148,0 148,0 240,0 240,0 246,0 252,-6 252,-12 252,-12 252,-56 252,-56 252,-62 246,-68 240,-68"/>
<text text-anchor="start" x="147" y="-52.8" font-family="Helvetica,sans-Serif" font-size="14.00" fill="#000000">entropy = 0.89</text>
<text text-anchor="start" x="150" y="-37.8" font-family="Helvetica,sans-Serif" font-size="14.00" fill="#000000">samples = 52</text>
<text text-anchor="start" x="144" y="-22.8" font-family="Helvetica,sans-Serif" font-size="14.00" fill="#000000">value = [36, 16]</text>
<text text-anchor="start" x="165" y="-7.8" font-family="Helvetica,sans-Serif" font-size="14.00" fill="#000000">class = 1</text>
</g>
<!-- 2&#45;&gt;4 -->
<g id="edge4" class="edge">
<title>2&#45;&gt;4</title>
<path fill="none" stroke="#000000" d="M194,-103.9815C194,-95.618 194,-86.7965 194,-78.3409"/>
<polygon fill="#000000" stroke="#000000" points="197.5001,-78.2636 194,-68.2637 190.5001,-78.2637 197.5001,-78.2636"/>
</g>
<!-- 6 -->
<g id="node7" class="node">
<title>6</title>
<path fill="#399de5" stroke="#000000" d="M365.5,-68C365.5,-68 282.5,-68 282.5,-68 276.5,-68 270.5,-62 270.5,-56 270.5,-56 270.5,-12 270.5,-12 270.5,-6 276.5,0 282.5,0 282.5,0 365.5,0 365.5,0 371.5,0 377.5,-6 377.5,-12 377.5,-12 377.5,-56 377.5,-56 377.5,-62 371.5,-68 365.5,-68"/>
<text text-anchor="start" x="281.5" y="-52.8" font-family="Helvetica,sans-Serif" font-size="14.00" fill="#000000">entropy = 0.0</text>
<text text-anchor="start" x="280" y="-37.8" font-family="Helvetica,sans-Serif" font-size="14.00" fill="#000000">samples = 12</text>
<text text-anchor="start" x="278.5" y="-22.8" font-family="Helvetica,sans-Serif" font-size="14.00" fill="#000000">value = [0, 12]</text>
<text text-anchor="start" x="295" y="-7.8" font-family="Helvetica,sans-Serif" font-size="14.00" fill="#000000">class = 0</text>
</g>
<!-- 5&#45;&gt;6 -->
<g id="edge6" class="edge">
<title>5&#45;&gt;6</title>
<path fill="none" stroke="#000000" d="M336.5527,-103.9815C335.0526,-95.618 333.4702,-86.7965 331.9535,-78.3409"/>
<polygon fill="#000000" stroke="#000000" points="335.3566,-77.4886 330.146,-68.2637 328.4666,-78.7246 335.3566,-77.4886"/>
</g>
<!-- 7 -->
<g id="node8" class="node">
<title>7</title>
<path fill="#e58139" stroke="#000000" d="M484.5,-68C484.5,-68 407.5,-68 407.5,-68 401.5,-68 395.5,-62 395.5,-56 395.5,-56 395.5,-12 395.5,-12 395.5,-6 401.5,0 407.5,0 407.5,0 484.5,0 484.5,0 490.5,0 496.5,-6 496.5,-12 496.5,-12 496.5,-56 496.5,-56 496.5,-62 490.5,-68 484.5,-68"/>
<text text-anchor="start" x="403.5" y="-52.8" font-family="Helvetica,sans-Serif" font-size="14.00" fill="#000000">entropy = 0.0</text>
<text text-anchor="start" x="406.5" y="-37.8" font-family="Helvetica,sans-Serif" font-size="14.00" fill="#000000">samples = 1</text>
<text text-anchor="start" x="404.5" y="-22.8" font-family="Helvetica,sans-Serif" font-size="14.00" fill="#000000">value = [1, 0]</text>
<text text-anchor="start" x="417" y="-7.8" font-family="Helvetica,sans-Serif" font-size="14.00" fill="#000000">class = 1</text>
</g>
<!-- 5&#45;&gt;7 -->
<g id="edge7" class="edge">
<title>5&#45;&gt;7</title>
<path fill="none" stroke="#000000" d="M381.981,-103.9815C390.3886,-94.7908 399.3021,-85.0472 407.7215,-75.8436"/>
<polygon fill="#000000" stroke="#000000" points="410.4883,-78.0045 414.6557,-68.2637 405.3234,-73.2797 410.4883,-78.0045"/>
</g>
<!-- 9 -->
<g id="node10" class="node">
<title>9</title>
<path fill="#eca26d" stroke="#000000" d="M709.5,-187C709.5,-187 456.5,-187 456.5,-187 450.5,-187 444.5,-181 444.5,-175 444.5,-175 444.5,-116 444.5,-116 444.5,-110 450.5,-104 456.5,-104 456.5,-104 709.5,-104 709.5,-104 715.5,-104 721.5,-110 721.5,-116 721.5,-116 721.5,-175 721.5,-175 721.5,-181 715.5,-187 709.5,-187"/>
<text text-anchor="start" x="452.5" y="-171.8" font-family="Helvetica,sans-Serif" font-size="14.00" fill="#000000">BusinessTravel_Travel_Frequently ≤ 0.5</text>
<text text-anchor="start" x="532" y="-156.8" font-family="Helvetica,sans-Serif" font-size="14.00" fill="#000000">entropy = 0.737</text>
<text text-anchor="start" x="535" y="-141.8" font-family="Helvetica,sans-Serif" font-size="14.00" fill="#000000">samples = 409</text>
<text text-anchor="start" x="529" y="-126.8" font-family="Helvetica,sans-Serif" font-size="14.00" fill="#000000">value = [324, 85]</text>
<text text-anchor="start" x="554" y="-111.8" font-family="Helvetica,sans-Serif" font-size="14.00" fill="#000000">class = 1</text>
</g>
<!-- 8&#45;&gt;9 -->
<g id="edge9" class="edge">
<title>8&#45;&gt;9</title>
<path fill="none" stroke="#000000" d="M583,-222.8796C583,-214.6838 583,-205.9891 583,-197.5013"/>
<polygon fill="#000000" stroke="#000000" points="586.5001,-197.298 583,-187.2981 579.5001,-197.2981 586.5001,-197.298"/>
</g>
<!-- 12 -->
<g id="node13" class="node">
<title>12</title>
<path fill="#e88f4f" stroke="#000000" d="M952,-187C952,-187 758,-187 758,-187 752,-187 746,-181 746,-175 746,-175 746,-116 746,-116 746,-110 752,-104 758,-104 758,-104 952,-104 952,-104 958,-104 964,-110 964,-116 964,-116 964,-175 964,-175 964,-181 958,-187 952,-187"/>
<text text-anchor="start" x="754" y="-171.8" font-family="Helvetica,sans-Serif" font-size="14.00" fill="#000000">JobRole_Sales Executive ≤ 0.5</text>
<text text-anchor="start" x="808" y="-156.8" font-family="Helvetica,sans-Serif" font-size="14.00" fill="#000000">entropy = 0.47</text>
<text text-anchor="start" x="807" y="-141.8" font-family="Helvetica,sans-Serif" font-size="14.00" fill="#000000">samples = 828</text>
<text text-anchor="start" x="801" y="-126.8" font-family="Helvetica,sans-Serif" font-size="14.00" fill="#000000">value = [745, 83]</text>
<text text-anchor="start" x="826" y="-111.8" font-family="Helvetica,sans-Serif" font-size="14.00" fill="#000000">class = 1</text>
</g>
<!-- 8&#45;&gt;12 -->
<g id="edge12" class="edge">
<title>8&#45;&gt;12</title>
<path fill="none" stroke="#000000" d="M653.0468,-233.8545C682.7023,-220.8802 717.8784,-205.4907 750.4965,-191.2203"/>
<polygon fill="#000000" stroke="#000000" points="752.3148,-194.2452 760.0735,-187.0304 749.509,-187.832 752.3148,-194.2452"/>
</g>
<!-- 10 -->
<g id="node11" class="node">
<title>10</title>
<path fill="#ea9a61" stroke="#000000" d="M627,-68C627,-68 527,-68 527,-68 521,-68 515,-62 515,-56 515,-56 515,-12 515,-12 515,-6 521,0 527,0 527,0 627,0 627,0 633,0 639,-6 639,-12 639,-12 639,-56 639,-56 639,-62 633,-68 627,-68"/>
<text text-anchor="start" x="526" y="-52.8" font-family="Helvetica,sans-Serif" font-size="14.00" fill="#000000">entropy = 0.651</text>
<text text-anchor="start" x="529" y="-37.8" font-family="Helvetica,sans-Serif" font-size="14.00" fill="#000000">samples = 329</text>
<text text-anchor="start" x="523" y="-22.8" font-family="Helvetica,sans-Serif" font-size="14.00" fill="#000000">value = [274, 55]</text>
<text text-anchor="start" x="548" y="-7.8" font-family="Helvetica,sans-Serif" font-size="14.00" fill="#000000">class = 1</text>
</g>
<!-- 9&#45;&gt;10 -->
<g id="edge10" class="edge">
<title>9&#45;&gt;10</title>
<path fill="none" stroke="#000000" d="M580.7658,-103.9815C580.3158,-95.618 579.8411,-86.7965 579.3861,-78.3409"/>
<polygon fill="#000000" stroke="#000000" points="582.8762,-78.0611 578.8438,-68.2637 575.8863,-78.4373 582.8762,-78.0611"/>
</g>
<!-- 11 -->
<g id="node12" class="node">
<title>11</title>
<path fill="#f5cdb0" stroke="#000000" d="M763,-68C763,-68 669,-68 669,-68 663,-68 657,-62 657,-56 657,-56 657,-12 657,-12 657,-6 663,0 669,0 669,0 763,0 763,0 769,0 775,-6 775,-12 775,-12 775,-56 775,-56 775,-62 769,-68 763,-68"/>
<text text-anchor="start" x="665" y="-52.8" font-family="Helvetica,sans-Serif" font-size="14.00" fill="#000000">entropy = 0.954</text>
<text text-anchor="start" x="672" y="-37.8" font-family="Helvetica,sans-Serif" font-size="14.00" fill="#000000">samples = 80</text>
<text text-anchor="start" x="666" y="-22.8" font-family="Helvetica,sans-Serif" font-size="14.00" fill="#000000">value = [50, 30]</text>
<text text-anchor="start" x="687" y="-7.8" font-family="Helvetica,sans-Serif" font-size="14.00" fill="#000000">class = 1</text>
</g>
<!-- 9&#45;&gt;11 -->
<g id="edge11" class="edge">
<title>9&#45;&gt;11</title>
<path fill="none" stroke="#000000" d="M632.5243,-103.9815C643.9257,-94.4232 656.0405,-84.2668 667.4021,-74.7419"/>
<polygon fill="#000000" stroke="#000000" points="669.7147,-77.3704 675.1294,-68.2637 665.2175,-72.006 669.7147,-77.3704"/>
</g>
<!-- 13 -->
<g id="node14" class="node">
<title>13</title>
<path fill="#e78946" stroke="#000000" d="M905,-68C905,-68 805,-68 805,-68 799,-68 793,-62 793,-56 793,-56 793,-12 793,-12 793,-6 799,0 805,0 805,0 905,0 905,0 911,0 917,-6 917,-12 917,-12 917,-56 917,-56 917,-62 911,-68 905,-68"/>
<text text-anchor="start" x="804" y="-52.8" font-family="Helvetica,sans-Serif" font-size="14.00" fill="#000000">entropy = 0.334</text>
<text text-anchor="start" x="807" y="-37.8" font-family="Helvetica,sans-Serif" font-size="14.00" fill="#000000">samples = 536</text>
<text text-anchor="start" x="801" y="-22.8" font-family="Helvetica,sans-Serif" font-size="14.00" fill="#000000">value = [503, 33]</text>
<text text-anchor="start" x="826" y="-7.8" font-family="Helvetica,sans-Serif" font-size="14.00" fill="#000000">class = 1</text>
</g>
<!-- 12&#45;&gt;13 -->
<g id="edge13" class="edge">
<title>12&#45;&gt;13</title>
<path fill="none" stroke="#000000" d="M855,-103.9815C855,-95.618 855,-86.7965 855,-78.3409"/>
<polygon fill="#000000" stroke="#000000" points="858.5001,-78.2636 855,-68.2637 851.5001,-78.2637 858.5001,-78.2636"/>
</g>
<!-- 14 -->
<g id="node15" class="node">
<title>14</title>
<path fill="#ea9b62" stroke="#000000" d="M1047,-68C1047,-68 947,-68 947,-68 941,-68 935,-62 935,-56 935,-56 935,-12 935,-12 935,-6 941,0 947,0 947,0 1047,0 1047,0 1053,0 1059,-6 1059,-12 1059,-12 1059,-56 1059,-56 1059,-62 1053,-68 1047,-68"/>
<text text-anchor="start" x="946" y="-52.8" font-family="Helvetica,sans-Serif" font-size="14.00" fill="#000000">entropy = 0.661</text>
<text text-anchor="start" x="949" y="-37.8" font-family="Helvetica,sans-Serif" font-size="14.00" fill="#000000">samples = 292</text>
<text text-anchor="start" x="943" y="-22.8" font-family="Helvetica,sans-Serif" font-size="14.00" fill="#000000">value = [242, 50]</text>
<text text-anchor="start" x="968" y="-7.8" font-family="Helvetica,sans-Serif" font-size="14.00" fill="#000000">class = 1</text>
</g>
<!-- 12&#45;&gt;14 -->
<g id="edge14" class="edge">
<title>12&#45;&gt;14</title>
<path fill="none" stroke="#000000" d="M907.8756,-103.9815C920.1655,-94.3313 933.2319,-84.0714 945.4632,-74.4673"/>
<polygon fill="#000000" stroke="#000000" points="947.6602,-77.1923 953.3638,-68.2637 943.3371,-71.6867 947.6602,-77.1923"/>
</g>
</g>
</svg>
